<?xml version="1.0" encoding="utf-8"?>
<!-- Svg Vector Icons : http://www.onlinewebfonts.com/icon -->
<!DOCTYPE svg PUBLIC "-//W3C//DTD SVG 1.1//EN" "http://www.w3.org/Graphics/SVG/1.1/DTD/svg11.dtd">
<svg version="1.1" xmlns="http://www.w3.org/2000/svg" xmlns:xlink="http://www.w3.org/1999/xlink" x="0px" y="0px" viewBox="0 0 1000 1000" enable-background="new 0 0 1000 1000" xml:space="preserve">
<metadata> Svg Vector Icons : http://www.onlinewebfonts.com/icon </metadata>
<g><g transform="translate(0.000000,511.000000) scale(0.100000,-0.100000)"><path d="M8965.4,4982.7c-159.4-36.6-415.8-129.3-560.1-200.4c-344.7-172.4-439.5-256.4-1551.2-1365.9l-1077.2-1075l-2003.6,553.7l-2003.6,551.5h-269.3c-351.2,0-502-47.4-853.1-267.2c-331.8-209-383.5-280.1-297.3-402.9c49.5-73.3,4099.8-2094.1,4194.6-2094.1c122.8,0,198.2,125,153,247.8c-8.6,19.4-842.4,448.1-1932.5,995.3c-1790.3,894.1-1917.4,960.8-1878.6,991c178.8,135.7,525.7,219.7,756.2,181c71.1-10.8,1032-267.1,2137.2-570.9c1105.2-303.8,2035.9-551.5,2066.1-551.5c49.6,0,254.2,193.9,1191.4,1128.9c622.6,620.5,1178.5,1159.1,1234.5,1195.7c170.2,114.2,536.5,280.1,726,327.5c234.8,60.3,409.3,49.5,486.9-25.9c146.5-146.5,43.1-646.3-230.5-1098.7c-94.8-159.4-239.2-312.4-1247.4-1322.8C6951.1,1124.2,6864.9,1031.5,6864.9,964.7c0-40.9,252.1-995.3,562.3-2122.1c534.3-1947.5,562.3-2057.4,560.1-2231.9c0-213.3-53.9-413.7-150.8-558l-62.5-94.8l-960.9,1917.4C6268.1-1032.4,5839.4-200.8,5820-192.2c-107.7,40.9-206.8,2.2-247.8-96.9c-28-66.8-12.9-101.2,1014.7-2150.1C7425-4113.2,7640.5-4526.8,7687.9-4552.7c101.3-53.9,163.7-12.9,314.5,215.4c273.6,409.3,333.9,586,336.1,958.7v237l-558,2020.8l-555.8,2023l1109.5,1111.7C9510.5,3194.5,9504,3188.1,9697.9,3595.3c245.6,523.5,269.3,993.2,60.3,1225.8c-125,140-221.9,176.7-458.9,185.3C9178.7,5008.5,9040.8,4999.9,8965.4,4982.7z"/><path d="M4075,615.7c-23.7-12.9-374.9-353.3-779.9-758.3l-734.6-732.5l-835.9,243.4C933.9-403.3,880-390.4,735.6-399C505.1-414.1,158.3-595,113-724.3S91.5-868.7,1015.7-1334c835.9-422.3,861.8-437.3,859.6-495.5c0-34.5-12.9-168-25.8-297.3c-15.1-129.3-25.9-372.7-25.9-542.9c0-422.3-12.9-409.3,381.3-402.9c163.7,4.3,405,17.2,534.3,32.3c131.4,12.9,269.3,25.9,310.2,25.9l71.1,2.1l435.2-861.8c471.8-937.2,480.4-950.1,614-894.1c49.6,19.4,97,75.4,174.5,200.4c120.6,193.9,161.6,351.2,144.3,532.1c-6.5,64.6-114.2,469.6-239.1,898.4c-125,428.7-228.4,792.8-228.4,807.9c0,15.1,340.4,368.4,756.2,786.3c745.4,745.4,758.3,758.3,743.3,829.4c-17.2,92.6-84,146.5-181,146.5c-73.3,0-120.7-43.1-870.4-790.7c-435.2-435.2-801.4-816.5-814.4-848.8c-21.5-49.6,10.8-176.6,226.2-926.4c137.9-478.3,256.4-887.6,262.8-909.2c6.5-21.5,4.3-75.4-4.3-118.5c-15.1-77.6-30.2-47.4-417.9,717.4c-448.1,891.9-439.5,879-614,820.8c-144.3-49.6-336.1-75.4-652.8-92.6l-286.5-12.9v127.1c0,215.4,43.1,616.2,77.6,751.9c40.9,153,40.9,221.9,0,267.1c-17.2,19.4-381.3,209-807.9,422.3C964-924.7,673.2-767.4,688.2-756.6c56,36.6,183.1,6.5,1038.4-241.3c508.4-146.5,907-252.1,930.7-245.6c21.5,8.6,405,379.2,853.1,825.1c741.1,739,812.2,816.5,812.2,881.2C4322.7,594.2,4189.1,676,4075,615.7z"/></g></g>
</svg>