<svg width="1012" height="749" viewBox="0 0 1012 749" fill="none" xmlns="http://www.w3.org/2000/svg">
  <path
    d="M155.2 1.20001C154 2.70001 134 42.5 134 43.4C134 43.8 132.9 45.8 131.5 48L129 52H111.5C101 52 94 52.4 94 53C94 54 97.8 60.1 101.2 64.4C102.5 66 104.4 68.8 105.5 70.6C106.6 72.4 109.2 76.3 111.3 79.3C113.3 82.3 115 85.3 115 86.1C115 86.9 112.3 94.7 108.9 103.5C103.3 118.3 96 139.8 96 141.4C96 141.8 103.7 134.2 113.2 124.5L130.4 106.8L133 109.8C137.3 114.7 149.4 130.2 153.8 136.3L156.2 139.5L155.6 130.5C155.3 125.5 154.8 113.3 154.5 103.3L154 85L157.6 81C159.6 78.8 168.6 70.4 177.6 62.3C186.6 54.3 193.9 47.6 193.7 47.5C193.5 47.2 174.7 48.5 162.6 49.5L155.7 50L156.3 25C156.6 11.3 156.8 1.00998e-05 156.6 1.00998e-05C156.4 1.00998e-05 155.8 0.60001 155.2 1.20001Z"
    fill="black" />
  <path
    d="M657.2 27.5C654.5 30.9 654.4 33.9 657 39.2C658.1 41.5 659 44.4 659 45.6C659 49.5 653.8 50.1 646.5 47C641 44.6 634.6 44.4 629.9 46.4C623.4 49.2 613 62.7 613 68.4C613 69.2 612.6 70.2 612 70.5C611.5 70.8 611 74.4 611 78.4C611 83.7 610.6 86.1 609.5 87C608.7 87.7 608 88.8 608 89.4C608 91.3 601.5 95 598.2 95C594.1 95 587.9 91.1 584.3 86.3C573.3 71.5 563.1 67.1 548.5 70.5C544 71.6 531.6 84.2 530 89.3C529.2 91.6 528.3 93.9 527.8 94.4C527.4 95 527 97.8 527 100.6C527 103.5 526.6 106.2 526 106.5C525.5 106.8 525 108.4 525 110C525 115.5 519.9 119.1 505 124.1C499.8 125.8 494.6 128.1 493.4 129.1C492.3 130.2 491.1 130.8 490.9 130.5C490.6 130.3 488.3 132 485.7 134.4C482.5 137.3 479.4 141.8 476 148.5C473.2 153.9 471 158.9 471 159.7C471 160.4 470.6 161.8 470.1 162.8C469.6 163.7 468.6 166.5 467.9 169C467.2 171.5 465.6 174.6 464.3 176.1C463 177.5 462 179.1 462 179.6C462 180.2 460.4 182.1 458.5 184C456.6 185.9 455 187 455 186.5C455 186.1 454.2 186.3 453.3 187.1C449.3 190.4 438.3 194.6 425 198C422.5 198.6 419.1 199.6 417.4 200.1C415.7 200.6 413.6 201 412.6 201C411.7 201 409 201.9 406.8 203C404.5 204.1 402.1 205 401.5 205C400.1 205 392.9 208.7 387.3 212.3C384.9 213.8 382.7 215 382.3 215C381.8 215 377.2 219.3 372 224.5C366.8 229.7 362 234 361.3 234C358.2 234 347 253.6 347 258.9C347 260.5 346.6 262.1 346.1 262.4C345.6 262.7 345 264.7 344.7 266.7C344.4 268.8 343.6 272.5 342.9 275C340.7 282.9 341.6 312 344.1 313.6C344.6 313.9 345 315.1 345 316.3C345 318.5 347 325 349.5 330.5C350.2 332.1 351.4 335.1 352.1 337C352.8 338.9 354.7 342.4 356.2 344.6C357.7 346.9 359 349.2 359 349.7C359 350.3 359.9 351.5 361 352.5C362.1 353.5 362.8 354.6 362.5 355C362.3 355.3 368.4 361.9 376.1 369.6C388.4 381.8 392.2 386 396.5 392.9C397.1 393.8 398.8 396.4 400.3 398.7C401.8 401.1 403 403.6 403 404.4C403 405.3 403.9 407.5 405 409.5C406.6 412.4 407 414.9 407 423.5C407 429.3 406.6 434.2 406 434.5C405.5 434.8 405 435.9 405 436.8C405 437.8 403.7 441.2 402 444.5C399.8 449 399.1 451.9 399 456.3C399 462.1 399.1 462.2 404.7 468.1C408.7 472.4 412.6 475.1 417.9 477.7C424.8 481 426.3 481.3 434.5 481.4C447.1 481.5 455 478.4 472.5 466.7C486.3 457.4 489 456.5 504.5 456.8C518.6 457 526.2 456 534.8 452.8C539.2 451.1 542.7 448.5 551.4 440C557.5 434.2 565.4 427.4 568.9 425.1C579 418.2 595.3 411.2 608 408.2C610.5 407.6 615 406.5 618 405.8C625.7 404 658.3 404 663 405.9C669.4 408.4 677 412.1 677.5 413.1C677.9 413.6 678.5 413.8 678.9 413.6C681.1 412.2 695 430.3 695 434.4C695 439.9 706.5 454 711 454C716.1 454 719.9 450.4 723.9 441.7C727.9 433 734.5 425.7 739.4 424.4C743 423.5 744 424.6 743.8 429C743.7 432.2 742.9 433.7 738.8 437.7C733.4 442.9 730.6 448.3 731.5 451.5C731.8 452.6 733.2 454.8 734.6 456.4C737.3 459.5 742 460.2 745.9 458C748.6 456.6 754.3 456.7 756.2 458.2C758.5 460 760 466.4 760 474.8C760 483.7 761.7 495.8 763.4 498.5C764.1 499.6 765.2 502.4 766 504.7C766.7 507.1 767.7 509 768.2 509C768.6 509 769 509.7 769 510.5C769 513.1 771.3 516.3 779 524.3C789.2 534.9 797.7 539.1 810.2 539.8C820.6 540.3 827.3 538.5 836.2 532.8C845.7 526.7 848.5 526.7 855.6 533.2C864.3 541.1 870.2 540.9 882 532.4C885.2 530.1 886 529.9 892 530.5C895.6 530.9 898.8 531.7 899.1 532.2C900.1 533.8 908.1 534.3 912.9 533C917.6 531.8 925.2 525.4 927.6 520.7C928.4 519.2 930 513.8 931.1 508.9C933.6 497.3 935.7 491.8 941.6 481.8C949.4 468.6 958.3 457 975.1 438.6C1000.8 410.2 1015 365.2 1011.1 324.7C1009.1 304.8 1004.6 285.9 998.6 272.8C990.4 254.8 988.1 250.6 979.9 238.2C971.3 225.5 967.8 221.5 942.5 196.5C921.6 175.8 917.8 171.5 914.8 165.5C910.8 157.7 908.5 149.7 907.5 140C906.4 129.3 904.2 120.2 901.5 114.5C898.4 108.2 885.4 94.7 874.6 86.5C861.6 76.8 858 68.9 858 50.5C858 38.3 856.8 33.6 852.5 29.3C847.9 24.7 845.4 25 839.9 30.7C834.1 36.9 831.6 40.6 829.9 45.5C829.2 47.7 827.7 51 826.8 52.8C825.8 54.6 825 57.3 825 58.8C825 60.4 824.6 62 824.1 62.5C822.6 64.2 821.8 72.6 821.4 93.5C821.1 104.5 820.5 113.9 820 114.4C819.4 115 819 116.2 819 117.2C819 118.2 818.6 119.8 818.2 120.8C817.7 121.7 816.7 123.8 815.9 125.5C814.9 127.6 812.6 129.4 808.5 131.5C803.1 134.2 801.6 134.5 794 134.3C784.2 134.1 777.1 132.1 765.4 126.2C750.5 118.7 732.9 103.6 728.1 94.2C725.5 89.1 725.3 80.5 727.7 77C728.6 75.6 733 70.6 737.6 65.9C744.3 58.9 745.9 56.6 746.5 53.1C747.4 47.5 744.7 42.3 739.4 39.6C735.8 37.7 734.1 37.5 716.5 37.8C694.5 38.2 690 37.3 677.8 29.9C672.2 26.5 669.5 25.5 665 25.2C659.8 24.8 659.1 25 657.2 27.5ZM666.3 31.2C667.5 31.8 671.3 34.9 674.7 38C688.2 50.3 696.1 52.1 717.4 47.5C726.9 45.5 731 45 733.7 45.7C741.7 47.6 740.2 52.2 729.1 59.4C715 68.5 708.9 77.6 708.7 89.8C708.6 103.3 714.3 114.9 728.4 129.7C748.6 151 768.4 161.1 789.5 161.2C811.9 161.2 826.8 150.9 833.1 131.2C835.9 122.3 836.7 101.8 835 80.8C833.9 68.3 833.9 63.3 834.9 56.4C836.8 42.6 841.4 33 846.1 33C850.2 33 851.1 39.5 849 54.8C846.4 73.4 850.9 86.1 866 102.4C879.4 117 880.4 119.3 882 142.7C884.4 177.6 891.8 193 922 226C945.9 252 957.9 271.6 967 298.7C982.3 345 977.7 383.1 952.1 421.4C932.3 451 921.3 475.4 916 502.1C913.4 515.5 912.5 517.6 908.9 519.1C906.4 520.1 904.6 520 898.7 518.6C887.9 516 881.3 518.3 874 527C868.2 533.9 866.3 533.7 860.8 525.8C852.8 514.2 844.3 512.5 827.5 519.1C820.9 521.7 818.5 522.1 813.5 521.8C805.3 521.3 797.6 517.4 790.1 510.1C779.9 500 775.5 490.2 774 473.8C771.9 451.7 763.3 444.4 746 450C742.2 451.2 738.4 452 737.5 451.6C734.8 450.6 735.9 446.9 740.2 442.6C746.7 436.2 749 432.2 749 427.6C749 422.9 748.4 421.8 745.1 420.1C742.2 418.5 737.1 419.4 731.1 422.5C724.6 425.8 720.3 430.4 716.4 438.2C714.5 441.9 712.4 445 711.6 445C709.2 445 706.9 441.3 703.4 432C698.6 418.8 694.7 412.5 686.5 404.4C666.8 384.8 632.8 378.4 597.5 387.6C572.6 394.2 555.2 403.6 537.5 419.9C526.3 430.3 521.8 432.1 505.2 433.1C484.8 434.3 477.2 437.5 456 453.6C442.9 463.5 436.3 466.9 428.6 467.7C418.5 468.7 407 462.6 407 456.1C407 454.6 409.2 449.2 411.9 444C418.1 431.9 420 425.5 420 416C420 399 411.9 381.4 391.7 354.2C378.1 335.9 372 319.6 372 301.5C372 289.9 374 281.7 379.5 270.5C386.2 256.7 398.3 244.5 412.7 237.2C415 236 422.4 233.2 429.2 230.9C452.1 223.1 463.4 216.7 473.4 205.9C482 196.7 485.7 188.7 491.6 166.5C496.8 147 499.6 143.2 514.3 135.9C528.5 128.7 535.6 119.8 539.4 104.6C542.5 92.2 546.1 87.2 552.7 86.4C557.6 85.8 562 88.4 566.3 94.7C571.9 102.9 576.8 107.6 583.2 111.1C591.5 115.5 599.9 115.7 607.6 111.7C618.1 106.3 623 97.1 624 80.5C625.3 59.5 632.2 51.4 644.6 56.6C650.5 59.1 657.4 58.1 661.3 54.1C665.5 50 665.5 44.5 661.6 37.7C659.3 33.8 659 32.7 660 31.5C661.5 29.7 663.4 29.6 666.3 31.2Z"
    fill="black" />
  <path
    d="M258.2 144.7C256.9 147.3 247.7 173.6 243.8 186L240.5 196.5L234 198.2C230.4 199.1 222.2 201 215.8 202.5C207.1 204.5 204.2 205.5 204.8 206.4C205.7 207.9 217.9 218.5 227.3 225.9C234.1 231.2 234.1 231.3 233.5 235.4C230.4 258.7 228.7 286.5 230.4 286.5C230.7 286.5 232.2 284.2 233.6 281.5C237.6 274.1 251.9 250.3 253.8 248C255.5 246.1 255.7 246.2 264.1 251.4C276.6 259.1 290 266.3 290.7 265.6C291 265.3 290.6 264 289.8 262.8C289.1 261.5 287.1 257.1 285.5 253C284 248.9 281.8 243.5 280.8 241C279.8 238.6 277.8 232.8 276.5 228.1L274 219.7L278.2 214.1C281.8 209.3 292.1 196.8 304.9 181.8C307.6 178.7 307.9 177.9 306.4 178.3C304.8 178.9 280.6 185.5 271.2 188C266.8 189.2 266.8 189.3 263.4 168C262.6 162.8 261.5 155.2 261 151.1C259.9 142.8 259.6 142 258.2 144.7Z"
    fill="black" />
  <path
    d="M44.1 200.7C43.5 203.9 42 211.7 40.7 218C39.4 224.3 37.7 232.9 37.1 237C34.9 250.3 35.9 249 28.2 249C24.5 248.9 17 248.5 11.5 248.1C6.00003 247.6 1.30003 247.4 1.10003 247.6C0.200033 248.4 6.80003 256.4 21.8 272.9C26 277.5 30 282 30.7 282.9C31.5 284.1 31.6 288.4 30.9 298.5C29.9 316.1 29.8 339 30.8 339C31.2 339 32.2 337.9 33 336.6C38.6 327.6 53.4 307.9 54.5 308.2C55.5 308.4 65.1 317 80 331C83.7 334.5 92 341.1 92 340.6C92 340.3 90.7 337.5 89.1 334.3C82.7 321.4 70 289.4 70 286C70 284.4 88.4 256.7 92.6 251.9C93.4 251.1 94 249.9 94 249.4C94 248.9 86.4 248.5 76.3 248.5H58.6L56.8 241.5C54 230.7 48.3 205.1 47.5 199.7C47.2 197.1 46.5 195 46 195C45.6 195 44.7 197.6 44.1 200.7Z"
    fill="black" />
  <path
    d="M240.7 397.7C246 412.9 246.4 411.3 237 414C232.6 415.3 229.3 416.6 229.7 417C230.1 417.4 235.4 419.6 241.3 422L252.1 426.3L257.9 437.9L263.8 449.5L264.8 445.5C265.4 443.3 266.2 439.6 266.6 437.2C267 434.9 267.6 432.8 268 432.5C268.4 432.3 273.8 433.6 280 435.5C286.2 437.5 291.5 438.9 291.6 438.7C291.8 438.5 288 435.2 283.2 431.3C269.3 420 269.9 420.9 271.6 411.7C272.4 407.3 273 403.2 272.8 402.5C272.6 401.6 270.4 402.1 264.6 404.3L256.8 407.4L247.3 397.7C242.1 392.4 237.7 388 237.5 388C237.4 388 238.8 392.4 240.7 397.7Z"
    fill="black" />
  <path
    d="M182.4 530.7C185.1 540 190.2 567.1 189.4 567.9C188.9 568.4 164 569.7 149 570L140.5 570.2L147 573.2C150.6 574.9 156 577.3 159 578.5C177.7 586.2 190 591 190.9 591C193.4 591 194 595.4 193.6 610.7C193.3 619.4 192.8 627.3 192.5 628.2C191 632.1 196.4 629 211.5 617.2C213.5 615.6 224.3 607.5 226.2 606.1C227.7 605 228.8 604.9 231.8 605.9C247.7 611 281.4 620.9 281.7 620.6C281.9 620.4 274.3 612.8 264.9 603.7L247.7 587.1L255.1 579.3C264.2 569.8 273.3 558.9 272.7 558.3C272.4 558.1 264.9 559 255.9 560.4C229.1 564.6 224.8 565 222.5 563.5C221.4 562.8 212.1 554.7 201.7 545.6C191.4 536.5 182.7 529 182.4 529C182.1 529 182.1 529.8 182.4 530.7Z"
    fill="black" />
  <path
    d="M833.3 569.2C831.1 571.6 828.9 574.8 828.5 576.5C827.1 582.1 826.8 592.2 827.9 593.3C828.5 593.9 829 595.6 829 597C829 601 837.4 616.8 842.2 621.7C850.3 630.1 860.7 632.4 870.5 628.1C885.2 621.6 899.4 593.8 896 578.4C892.6 563.4 877.9 560.6 864.1 572.3C859.7 576 855.9 575.8 851.3 571.7C842 563.5 839.2 563.1 833.3 569.2ZM846.3 576C854.1 583.1 858.4 583.6 868.7 578.5C879.4 573.3 885 574.2 883.5 580.8C882.4 585.9 873.5 599.3 867.2 605.3C859.7 612.4 856.8 612.8 851.9 607.3C845.5 599.9 837 578.8 838.5 573.9C839.4 571 841.6 571.6 846.3 576Z"
    fill="black" />
  <path
    d="M280.6 674.1C277.6 676.5 277.2 680.4 279.6 683.8C280.8 685.5 282.1 686 285.4 686C290.5 686 293 683.8 293 679.4C293 675.9 292.2 674.7 289.3 673.1C286.1 671.5 283.6 671.7 280.6 674.1Z"
    fill="black" />
  <path
    d="M253.7 675.7C253.3 676 253 687 253 700.1C253 726.7 253.7 730.8 259.1 733.5C262 735.1 269.7 735.5 271.7 734.2C273.5 733.1 271.6 725.1 269.1 723.4C267.1 721.9 267 721.2 267 698.4V675H260.7C257.2 675 254 675.3 253.7 675.7Z"
    fill="black" />
  <path
    d="M832 704.5V734H837.4C842 734 843 733.7 843.5 732C844.3 729.5 845.2 729.5 847.5 732C849.9 734.6 855.3 735.5 860 734.1C871 730.8 876.4 712.5 870 700C865.5 691.2 858.2 689.1 847.3 693.6C846.3 694 846 691.9 846 684.6V675H839H832V704.5ZM856.4 705.2C858.2 707.8 858.6 717.1 857 720C855.3 723.2 852.2 724.3 848.9 723C846 721.8 846 721.7 846 713.4C846 706.6 846.3 704.9 847.8 704.1C850.8 702.3 854.8 702.8 856.4 705.2Z"
    fill="black" />
  <path
    d="M429.3 679C420.5 681.1 415 687.3 415 695.2C415 703.7 418.7 707.6 432.3 713.4C439.9 716.7 441.8 719.2 438.4 721.7C435.7 723.7 430.9 723.3 425.4 720.5L420.5 718L416.8 722.3C414.8 724.6 413.2 726.9 413.3 727.5C413.9 729.9 425.1 734.3 432 734.8C438.1 735.2 439.6 734.9 444.4 732.6C452.6 728.6 456.2 721.3 454.1 713.3C452.6 707.8 448.6 704.5 439.1 700.8C434.5 699 430.2 696.8 429.7 695.8C427 691.5 435.2 689.4 442.7 692.5C444.6 693.3 446.3 694 446.5 694C446.6 694 448.1 692 449.9 689.5L453.1 685.1L449.3 682.6C443.4 678.7 436 677.4 429.3 679Z"
    fill="black" />
  <path
    d="M8.50001 704.7C4.20001 718.9 0.500009 731.3 0.200009 732.2C-0.199991 733.8 0.600009 734 6.80001 734H13.9L14.9 730.2C15.5 728.2 16 725.7 16 724.7C16 723.2 17.1 723 24.4 723H32.9L34 728.5L35.1 734H42.6C46.7 734 50 733.8 50 733.6C50 732.7 34 680.9 33.5 680C33.2 679.4 29.2 679 24.6 679H16.3L8.50001 704.7ZM27.5 700.7C28.8 706.1 29.6 710.8 29.4 711.2C29.1 711.7 26.9 712 24.4 712C19.5 712 19.2 711.4 20.9 705C21.4 703.1 22.4 698.9 23 695.7C23.7 692.5 24.4 690.1 24.7 690.4C25 690.6 26.2 695.3 27.5 700.7Z"
    fill="black" />
  <path
    d="M657 706.4V734H668.3C685.5 734 692.4 731.2 697.7 722.2C700.3 717.8 700.5 716.7 700.5 706.5C700.5 694.6 699.7 692 694.3 686.6C689.2 681.4 684 679.8 669.8 679.2L657 678.7V706.4ZM682.5 694C685.9 697.2 687.3 702.3 686.7 708.5C685.9 716.2 683.8 719.5 678.6 721.5C671.1 724.4 671 724.2 671 706.4V690.7L675.6 691.3C678.4 691.6 681 692.6 682.5 694Z"
    fill="black" />
  <path
    d="M144.4 686.2C143.6 691 143.2 691.5 140.5 692C137.7 692.5 137.5 692.8 137.2 697.7C136.9 702.7 137 702.9 139.7 703.2L142.5 703.5L143 714.5C143.6 727.3 145.1 730.9 150.6 733.5C153.3 734.7 156 735.1 160.6 734.8C164.1 734.6 167.1 734.2 167.4 733.9C167.6 733.7 167.4 731.3 166.8 728.7C165.9 724.4 165.6 724 163 724C158.1 724 157 721.9 157 712V703.1L161.8 702.8L166.5 702.5L166.8 697.2L167.1 692H162.1H157V686.5V681H151.1H145.3L144.4 686.2Z"
    fill="black" />
  <path
    d="M758.7 681.7C758.3 682 758 683.5 758 684.9C758 689.9 756.9 691.9 754.1 692.2C751.7 692.5 751.5 692.9 751.2 697.7C750.9 702.7 751 703 753.3 703C755.7 703 755.8 703.1 756.2 713.7C756.6 725.9 758.1 729.8 763.3 733.1C765.9 734.7 767.8 735 773.2 734.8C776.9 734.6 780.2 734.2 780.5 733.8C780.9 733.5 780.8 731.2 780.3 728.8C779.5 724.9 779.2 724.5 776.2 724.2C771.2 723.7 769.9 720.7 770.2 711.4L770.5 703.5L775.3 703.2L780 702.9V697.5V692.1L775.3 691.8L770.5 691.5L770.2 686.2L769.9 681H764.6C761.7 681 759 681.3 758.7 681.7Z"
    fill="black" />
  <path
    d="M112.5 692C110.8 692.5 108.1 694.3 106.5 696C103.9 698.7 103.5 699.9 103.5 704.5C103.5 711.1 105.1 713 113.9 717.2C121.2 720.6 122.4 721.8 120.8 723.7C119.3 725.6 115 725.3 110.7 723C108.7 721.9 106.8 721 106.6 721C106.2 721 101 728.8 101 729.5C101 731.1 110.3 734.4 116 734.7C124.4 735.3 130.6 732.4 133.4 726.7C137 719.2 133.2 712.1 123.5 708.5C116.9 706.1 115.3 704.6 117 702.6C118.7 700.5 120.8 700.6 125.2 702.9L128.8 704.9L131.4 701.1C132.8 699.1 134 696.9 134 696.4C134 693.1 118.8 690 112.5 692Z"
    fill="black" />
  <path
    d="M196 691.7C195.2 692 192.8 693.9 190.8 695.8C187.4 699 187 699.2 187 697.3C187 692.8 186 692 180.4 692H175V713V734H182H189V721.7C189 706.9 190 704.9 197.6 704.1L202.5 703.5L203.7 698.1C204.3 695.1 204.6 692.2 204.4 691.8C203.8 690.9 198.4 690.8 196 691.7Z"
    fill="black" />
  <path
    d="M217.7 692C212.7 693.3 208 695.8 208 697.2C208 697.8 209 699.8 210.1 701.7C211.6 704 212.8 705 213.9 704.6C222.5 701.8 223.8 701.6 226.4 703.3C230.1 705.8 229.6 706.7 224.3 707.4C217.6 708.4 209.8 712.3 207.7 715.9C205.6 719.5 205.5 724.2 207.5 728.4C210.6 734.9 218.9 736.9 226.2 732.8C229.9 730.7 230.2 730.7 231.1 732.3C231.9 733.6 233.4 734 237.6 734H243.2L242.8 717.6C242.5 699.8 242.1 698.4 235.8 693.7C232.9 691.5 223.4 690.6 217.7 692ZM229 718.8C229 720.3 228.5 722.1 227.8 722.8C226.1 724.5 221.5 724.3 219.9 722.4C218.8 721 218.9 720.4 221.3 718.4C222.9 717.1 225.2 716 226.6 716C228.6 716 229 716.5 229 718.8Z"
    fill="black" />
  <path
    d="M313.5 692C309.5 693 303 695.8 303 696.5C303 696.8 303.9 698.9 305.1 701.1C306.8 704.5 307.5 705.1 309.3 704.5C318.1 701.8 319 701.7 321.5 703.4C324.5 705.4 324.7 707 322.1 707C321.1 707 317.3 707.9 313.8 709C303.6 712.1 299.3 718.4 301.9 726.3C304.5 734.2 312.9 737.1 321 733C325 731 325.5 730.9 326.5 732.4C327.4 733.5 329.3 734 332.9 734H338V718.7C338 700.1 336.7 696.1 329.8 693C325.4 691 318.9 690.6 313.5 692ZM324 718.9C324 722.5 321.9 724.2 318.3 723.8C316.1 723.6 315.5 723 315.5 721C315.5 719.2 316.4 718.1 318.9 716.8C323 714.8 324 715.2 324 718.9Z"
    fill="black" />
  <path
    d="M369.1 692.1C367.8 692.6 365.5 693.9 364 695C361.1 697.1 360 696.8 360 693.8C360 692.3 359.2 692 354 692H348V713V734H355H362V720.6C362 707.3 362 707.1 364.6 705.1C367.5 702.8 369.7 702.5 372 704C373.2 704.7 373.6 707.9 373.8 719.5L374.1 734H381.2H388.2L387.8 717.2C387.5 703.6 387.1 699.9 385.7 697.2C382.9 692 375.2 689.6 369.1 692.1Z"
    fill="black" />
  <path
    d="M480.1 693.1C476.1 695.1 475.7 695.2 474.8 693.7C474.1 692.4 472.5 692 468.5 692H463V720.5V749H470H477V740.5C477 735.8 477.2 732 477.5 732C477.8 732 479.2 732.7 480.6 733.6C483.7 735.7 491.2 735 494.9 732.3C506 724 506.6 701.8 495.9 693.7C491.8 690.7 485.3 690.5 480.1 693.1ZM487.4 705.2C489.2 707.8 489.6 717.1 488 720C486.3 723.2 483.2 724.3 479.9 723C477 721.8 477 721.7 477 713.4C477 706.6 477.3 704.9 478.8 704.1C481.8 702.3 485.8 702.8 487.4 705.2Z"
    fill="black" />
  <path
    d="M520.2 692.4C517.9 693.2 514.8 694.5 513.5 695.4L511.1 697L513.2 700.8C514.4 702.8 515.5 704.7 515.6 704.9C515.8 705 518.2 704.4 521 703.5C526.7 701.6 530.4 702.1 531.9 704.9C532.8 706.6 532.5 706.9 528.2 707.5C521.8 708.4 514.3 711.8 512 714.8C509.6 717.8 509.3 724.8 511.5 729C514.5 734.9 522.4 736.6 529.5 733C534.2 730.6 535 730.5 535 732.5C535 733.7 536.3 734 541 734H547V720.7C546.9 701.9 545.2 696.4 538.4 693.1C534.4 691.1 525.4 690.7 520.2 692.4ZM533 718.2C533 721.3 530.1 724 526.8 724C521.3 724 522.3 718.5 528.2 716.4C532.1 715.1 533 715.4 533 718.2Z"
    fill="black" />
  <path
    d="M569.1 692.4C564 694.1 558.4 699.1 556.4 703.7C554.3 708.5 554.6 719.3 556.9 723.8C561.7 733.2 572.6 737.4 583.1 733.9C588.9 731.9 589.5 730.9 587 726C585.2 722.5 584.5 721.9 582.7 722.5C577.1 724.3 575.3 724.2 572.6 721.8C569.3 719 568.1 712.6 570 707.9C571.7 703.9 577 701.4 580.2 703.1C582.1 704.1 582.7 703.9 584.7 701.4C589.1 696.1 589.3 695.2 586.6 693.5C583.2 691.2 574.4 690.7 569.1 692.4Z"
    fill="black" />
  <path
    d="M604.4 692.9C596.2 696.6 591.2 706.3 592.3 716.1C593.8 728.2 603 735.8 615.3 734.8C620.3 734.4 626.6 732.4 628.8 730.5C629 730.3 628 728.4 626.6 726.2L624.1 722.2L620.2 723.6C617.4 724.5 615.2 724.6 613 724C609.6 723 606 720.3 606 718.8C606 718.4 611.1 718 617.4 718C625 718 629.1 717.6 629.6 716.9C631.2 714.3 630.2 704.9 627.8 700.2C623.7 692 613.5 688.8 604.4 692.9ZM617.4 704.2C618.3 705.4 619 706.8 619 707.2C619 707.7 616.1 708 612.5 708C605.4 708 604 706.5 608.2 703.6C611.5 701.3 615.6 701.6 617.4 704.2Z"
    fill="black" />
  <path
    d="M719.2 692.5C716.9 693.2 713.8 694.5 712.5 695.4L710.1 697L712.2 700.8C713.4 702.8 714.5 704.7 714.6 704.9C714.8 705 717.2 704.4 720 703.5C725.7 701.6 729.4 702.1 730.9 704.9C731.8 706.6 731.5 706.9 727.2 707.5C720.8 708.4 713.3 711.8 711 714.8C708.6 717.8 708.3 724.8 710.5 729C713.5 734.9 721.4 736.6 728.5 733C733.2 730.6 734 730.5 734 732.5C734 733.7 735.3 734 740.1 734H746.2L745.9 718.2C745.5 704.7 745.2 702 743.5 699C739.5 692.1 729.3 689.3 719.2 692.5ZM732 718.2C732 721.3 729.1 724 725.8 724C720.3 724 721.3 718.5 727.2 716.4C731.1 715.1 732 715.4 732 718.2Z"
    fill="black" />
  <path
    d="M794.2 692.8C786.7 695.5 786.3 696.1 788.5 701C790.5 705.5 790.1 705.4 798.7 702.9C802.2 701.8 803.1 701.9 805.4 703.3C809.1 705.8 808.6 706.7 803.3 707.5C796 708.5 788.4 712.3 786.6 715.9C784.6 719.7 784.6 725.2 786.5 729C789.5 734.9 798.5 736.8 804.8 733C808.7 730.6 810 730.5 810 732.5C810 733.7 811.3 734 816.1 734H822.2L821.8 718.2C821.5 701.1 820.6 698 814.9 693.7C811 690.9 801 690.4 794.2 692.8ZM808 719C808 722.2 805.7 724 801.7 724C799.1 724 797.7 722 798.6 719.6C799.2 718 806 714.9 807.3 715.7C807.7 715.9 808 717.4 808 719Z"
    fill="black" />
  <path
    d="M889.2 692.4C886.9 693.2 883.8 694.5 882.5 695.4L880.1 697L882.2 700.8C883.4 702.8 884.5 704.7 884.6 704.9C884.8 705 887.2 704.4 890 703.5C895.7 701.6 899.4 702.1 900.9 704.9C901.8 706.6 901.5 706.9 897.2 707.5C890.4 708.5 883.3 711.8 881 715C878.6 718.4 878.4 724.9 880.5 729C883.5 734.9 891.4 736.6 898.5 733C903.2 730.6 904 730.5 904 732.5C904 733.7 905.3 734 910.1 734H916.2L915.8 718.2C915.5 701.1 914.6 698 908.9 693.7C905.4 691.2 895.1 690.5 889.2 692.4ZM902 718.5C902 721.7 899.5 724 896 724C890.4 724 890.9 719 896.8 716.7C901.1 715 902 715.3 902 718.5Z"
    fill="black" />
  <path
    d="M934.6 692C928.4 694 924.3 700.4 925.4 706.4C926.3 711.1 930.8 715.4 937 717.6C943.2 719.8 944.8 721.4 943 723.5C941.3 725.6 937.7 725.4 932.9 722.9C930.6 721.8 928.7 721 928.6 721.2C928.5 721.4 927.2 723.2 925.7 725.2C924.2 727.2 923 729.1 923 729.4C923 729.7 924.9 731 927.3 732.2C932.9 735.2 946.1 735.5 950.3 732.7C954.8 729.7 957.2 725.1 956.7 720.2C956.1 714.6 954 712.4 945.3 708.4C941.3 706.5 938 704.6 938 704.1C938 703.5 938.9 702.6 940.1 701.9C941.8 701.1 943.2 701.2 946.8 702.5C951.3 704.3 951.3 704.3 953.2 701.9C957.4 696.6 957.4 696.2 952.8 693.9C948.2 691.5 939 690.6 934.6 692Z"
    fill="black" />
  <path
    d="M975.7 692.5C961.5 697.5 957.5 719 968.9 729.3C973.9 733.8 978.8 735.4 985.9 734.7C991 734.3 999 731.4 999 730.1C999 729.8 998.1 728 996.9 726.1C995 723 994.7 722.8 991.2 723.6C984 725.1 979.1 723.8 977 720C976 718.1 976.3 718 987.4 718C1000.9 718 1001.7 717.5 1000.6 708.6C998.9 695 988.1 688 975.7 692.5ZM987.4 704.2C988.3 705.4 989 706.8 989 707.2C989 707.7 986.1 708 982.5 708C975.6 708 974.7 707.3 978 704C980.7 701.3 985.5 701.4 987.4 704.2Z"
    fill="black" />
  <path
    d="M55 692.7C54.9 693.2 54.9 700.6 54.9 709.2C55 727.2 56.2 731.6 62 734C66.3 735.8 73.3 734.8 77.4 731.7C80.9 729 82 729.1 82 732.2C82 733.7 82.8 734 88 734H94V713V691.9L86.8 692.2L79.5 692.5L79 707L78.5 721.5L75.7 722.4C70.1 724.4 69.5 723 69.2 706.6L68.9 692H62C58.1 692 55 692.3 55 692.7Z"
    fill="black" />
  <path d="M278.7 692.7C278.3 693 278 702.5 278 713.7V734H285.5H293V713V692H286.2C282.4 692 279 692.3 278.7 692.7Z"
    fill="black" />
</svg>