<svg width="1923" height="660" viewBox="0 0 1923 660" fill="none" xmlns="http://www.w3.org/2000/svg">
<path d="M287.329 2.39895e-05H213.986V59.591H91.8654V183.841H0V366.309H91.8654V490.584H213.986V550H278.642C429.72 550 563 428.047 563 275.687C563 124.375 438.657 2.39895e-05 287.329 2.39895e-05Z" fill="#E42A20"/>
<path d="M254.719 70.7722C253.744 71.7374 237.496 97.3486 237.496 97.9277C237.496 98.1851 236.603 99.4721 235.465 100.888L233.434 103.462H219.217C210.687 103.462 205 103.719 205 104.105C205 104.749 208.087 108.674 210.849 111.441C211.905 112.471 213.449 114.272 214.343 115.431C215.236 116.589 217.349 119.099 219.055 121.029C220.679 122.96 222.06 124.89 222.06 125.405C222.06 125.92 219.867 130.939 217.105 136.602C212.555 146.126 206.625 159.961 206.625 160.99C206.625 161.248 212.88 156.357 220.598 150.115L234.572 138.725L236.684 140.656C240.177 143.809 250.007 153.783 253.582 157.708L255.532 159.768L255.044 153.976C254.8 150.759 254.394 142.908 254.15 136.473L253.744 124.697L256.669 122.123C258.294 120.707 265.605 115.302 272.917 110.09C280.229 104.942 286.159 100.63 285.997 100.566C285.834 100.373 270.561 101.21 260.731 101.853L255.125 102.175L255.613 86.0874C255.857 77.2715 256.019 70 255.857 70C255.694 70 255.207 70.3861 254.719 70.7722Z" fill="black"/>
<path d="M678.181 56.5002C675.481 59.9002 675.381 62.9002 677.981 68.2002C679.081 70.5002 679.981 73.4002 679.981 74.6002C679.981 78.5002 674.781 79.1002 667.481 76.0002C661.981 73.6002 655.581 73.4002 650.881 75.4002C644.381 78.2002 633.981 91.7002 633.981 97.4002C633.981 98.2002 633.581 99.2002 632.981 99.5002C632.481 99.8002 631.981 103.4 631.981 107.4C631.981 112.7 631.581 115.1 630.481 116C629.681 116.7 628.981 117.8 628.981 118.4C628.981 120.3 622.481 124 619.181 124C615.081 124 608.881 120.1 605.281 115.3C594.281 100.5 584.081 96.1002 569.481 99.5002C564.981 100.6 552.581 113.2 550.981 118.3C550.181 120.6 549.281 122.9 548.781 123.4C548.381 124 547.981 126.8 547.981 129.6C547.981 132.5 547.581 135.2 546.981 135.5C546.481 135.8 545.981 137.4 545.981 139C545.981 144.5 540.881 148.1 525.981 153.1C520.781 154.8 515.581 157.1 514.381 158.1C513.281 159.2 512.081 159.8 511.881 159.5C511.581 159.3 509.281 161 506.681 163.4C503.481 166.3 500.381 170.8 496.981 177.5C494.181 182.9 491.981 187.9 491.981 188.7C491.981 189.4 491.581 190.8 491.081 191.8C490.581 192.7 489.581 195.5 488.881 198C488.181 200.5 486.581 203.6 485.281 205.1C483.981 206.5 482.981 208.1 482.981 208.6C482.981 209.2 481.381 211.1 479.481 213C477.581 214.9 475.981 216 475.981 215.5C475.981 215.1 475.181 215.3 474.281 216.1C470.281 219.4 459.281 223.6 445.981 227C443.481 227.6 440.081 228.6 438.381 229.1C436.681 229.6 434.581 230 433.581 230C432.681 230 429.981 230.9 427.781 232C425.481 233.1 423.081 234 422.481 234C421.081 234 413.881 237.7 408.281 241.3C405.881 242.8 403.681 244 403.281 244C402.781 244 398.181 248.3 392.981 253.5C387.781 258.7 382.981 263 382.281 263C379.181 263 367.981 282.6 367.981 287.9C367.981 289.5 367.581 291.1 367.081 291.4C366.581 291.7 365.981 293.7 365.681 295.7C365.381 297.8 364.581 301.5 363.881 304C361.681 311.9 362.581 341 365.081 342.6C365.581 342.9 365.981 344.1 365.981 345.3C365.981 347.5 367.981 354 370.481 359.5C371.181 361.1 372.381 364.1 373.081 366C373.781 367.9 375.681 371.4 377.181 373.6C378.681 375.9 379.981 378.2 379.981 378.7C379.981 379.3 380.881 380.5 381.981 381.5C383.081 382.5 383.781 383.6 383.481 384C383.281 384.3 389.381 390.9 397.081 398.6C409.381 410.8 413.181 415 417.481 421.9C418.081 422.8 419.781 425.4 421.281 427.7C422.781 430.1 423.981 432.6 423.981 433.4C423.981 434.3 424.881 436.5 425.981 438.5C427.581 441.4 427.981 443.9 427.981 452.5C427.981 458.3 427.581 463.2 426.981 463.5C426.481 463.8 425.981 464.9 425.981 465.8C425.981 466.8 424.681 470.2 422.981 473.5C420.781 478 420.081 480.9 419.981 485.3C419.981 491.1 420.081 491.2 425.681 497.1C429.681 501.4 433.581 504.1 438.881 506.7C445.781 510 447.281 510.3 455.481 510.4C468.081 510.5 475.981 507.4 493.481 495.7C507.281 486.4 509.981 485.5 525.481 485.8C539.581 486 547.181 485 555.781 481.8C560.181 480.1 563.681 477.5 572.381 469C578.481 463.2 586.381 456.4 589.881 454.1C599.981 447.2 616.281 440.2 628.981 437.2C631.481 436.6 635.981 435.5 638.981 434.8C646.681 433 679.281 433 683.981 434.9C690.381 437.4 697.981 441.1 698.481 442.1C698.881 442.6 699.481 442.8 699.881 442.6C702.081 441.2 715.981 459.3 715.981 463.4C715.981 468.9 727.481 483 731.981 483C737.081 483 740.881 479.4 744.881 470.7C748.881 462 755.481 454.7 760.381 453.4C763.981 452.5 764.981 453.6 764.781 458C764.681 461.2 763.881 462.7 759.781 466.7C754.381 471.9 751.581 477.3 752.481 480.5C752.781 481.6 754.181 483.8 755.581 485.4C758.281 488.5 762.981 489.2 766.881 487C769.581 485.6 775.281 485.7 777.181 487.2C779.481 489 780.981 495.4 780.981 503.8C780.981 512.7 782.681 524.8 784.381 527.5C785.081 528.6 786.181 531.4 786.981 533.7C787.681 536.1 788.681 538 789.181 538C789.581 538 789.981 538.7 789.981 539.5C789.981 542.1 792.281 545.3 799.981 553.3C810.181 563.9 818.681 568.1 831.181 568.8C841.581 569.3 848.281 567.5 857.181 561.8C866.681 555.7 869.481 555.7 876.581 562.2C885.281 570.1 891.181 569.9 902.981 561.4C906.181 559.1 906.981 558.9 912.981 559.5C916.581 559.9 919.781 560.7 920.081 561.2C921.081 562.8 929.081 563.3 933.881 562C938.581 560.8 946.181 554.4 948.581 549.7C949.381 548.2 950.981 542.8 952.081 537.9C954.581 526.3 956.681 520.8 962.581 510.8C970.381 497.6 979.281 486 996.081 467.6C1021.78 439.2 1035.98 394.2 1032.08 353.7C1030.08 333.8 1025.58 314.9 1019.58 301.8C1011.38 283.8 1009.08 279.6 1000.88 267.2C992.281 254.5 988.781 250.5 963.481 225.5C942.581 204.8 938.781 200.5 935.781 194.5C931.781 186.7 929.481 178.7 928.481 169C927.381 158.3 925.181 149.2 922.481 143.5C919.381 137.2 906.381 123.7 895.581 115.5C882.581 105.8 878.981 97.9002 878.981 79.5002C878.981 67.3002 877.781 62.6002 873.481 58.3002C868.881 53.7002 866.381 54.0002 860.881 59.7002C855.081 65.9002 852.581 69.6002 850.881 74.5002C850.181 76.7002 848.681 80.0002 847.781 81.8002C846.781 83.6002 845.981 86.3002 845.981 87.8002C845.981 89.4002 845.581 91.0002 845.081 91.5002C843.581 93.2002 842.781 101.6 842.381 122.5C842.081 133.5 841.481 142.9 840.981 143.4C840.381 144 839.981 145.2 839.981 146.2C839.981 147.2 839.581 148.8 839.181 149.8C838.681 150.7 837.681 152.8 836.881 154.5C835.881 156.6 833.581 158.4 829.481 160.5C824.081 163.2 822.581 163.5 814.981 163.3C805.181 163.1 798.081 161.1 786.381 155.2C771.481 147.7 753.881 132.6 749.081 123.2C746.481 118.1 746.281 109.5 748.681 106C749.581 104.6 753.981 99.6002 758.581 94.9002C765.281 87.9002 766.881 85.6002 767.481 82.1002C768.381 76.5002 765.681 71.3002 760.381 68.6002C756.781 66.7002 755.081 66.5002 737.481 66.8002C715.481 67.2002 710.981 66.3002 698.781 58.9002C693.181 55.5002 690.481 54.5002 685.981 54.2002C680.781 53.8002 680.081 54.0002 678.181 56.5002ZM687.281 60.2002C688.481 60.8002 692.281 63.9002 695.681 67.0002C709.181 79.3002 717.081 81.1002 738.381 76.5002C747.881 74.5002 751.981 74.0002 754.681 74.7002C762.681 76.6002 761.181 81.2002 750.081 88.4002C735.981 97.5002 729.881 106.6 729.681 118.8C729.581 132.3 735.281 143.9 749.381 158.7C769.581 180 789.381 190.1 810.481 190.2C832.881 190.2 847.781 179.9 854.081 160.2C856.881 151.3 857.681 130.8 855.981 109.8C854.881 97.3002 854.881 92.3002 855.881 85.4002C857.781 71.6002 862.381 62.0002 867.081 62.0002C871.181 62.0002 872.081 68.5002 869.981 83.8002C867.381 102.4 871.881 115.1 886.981 131.4C900.381 146 901.381 148.3 902.981 171.7C905.381 206.6 912.781 222 942.981 255C966.881 281 978.881 300.6 987.981 327.7C1003.28 374 998.681 412.1 973.081 450.4C953.281 480 942.281 504.4 936.981 531.1C934.381 544.5 933.481 546.6 929.881 548.1C927.381 549.1 925.581 549 919.681 547.6C908.881 545 902.281 547.3 894.981 556C889.181 562.9 887.281 562.7 881.781 554.8C873.781 543.2 865.281 541.5 848.481 548.1C841.881 550.7 839.481 551.1 834.481 550.8C826.281 550.3 818.581 546.4 811.081 539.1C800.881 529 796.481 519.2 794.981 502.8C792.881 480.7 784.281 473.4 766.981 479C763.181 480.2 759.381 481 758.481 480.6C755.781 479.6 756.881 475.9 761.181 471.6C767.681 465.2 769.981 461.2 769.981 456.6C769.981 451.9 769.381 450.8 766.081 449.1C763.181 447.5 758.081 448.4 752.081 451.5C745.581 454.8 741.281 459.4 737.381 467.2C735.481 470.9 733.381 474 732.581 474C730.181 474 727.881 470.3 724.381 461C719.581 447.8 715.681 441.5 707.481 433.4C687.781 413.8 653.781 407.4 618.481 416.6C593.581 423.2 576.181 432.6 558.481 448.9C547.281 459.3 542.781 461.1 526.181 462.1C505.781 463.3 498.181 466.5 476.981 482.6C463.881 492.5 457.281 495.9 449.581 496.7C439.481 497.7 427.981 491.6 427.981 485.1C427.981 483.6 430.181 478.2 432.881 473C439.081 460.9 440.981 454.5 440.981 445C440.981 428 432.881 410.4 412.681 383.2C399.081 364.9 392.981 348.6 392.981 330.5C392.981 318.9 394.981 310.7 400.481 299.5C407.181 285.7 419.281 273.5 433.681 266.2C435.981 265 443.381 262.2 450.181 259.9C473.081 252.1 484.381 245.7 494.381 234.9C502.981 225.7 506.681 217.7 512.581 195.5C517.781 176 520.581 172.2 535.281 164.9C549.481 157.7 556.581 148.8 560.381 133.6C563.481 121.2 567.081 116.2 573.681 115.4C578.581 114.8 582.981 117.4 587.281 123.7C592.881 131.9 597.781 136.6 604.181 140.1C612.481 144.5 620.881 144.7 628.581 140.7C639.081 135.3 643.981 126.1 644.981 109.5C646.281 88.5002 653.181 80.4002 665.581 85.6002C671.481 88.1002 678.381 87.1002 682.281 83.1002C686.481 79.0002 686.481 73.5002 682.581 66.7002C680.281 62.8002 679.981 61.7002 680.981 60.5002C682.481 58.7002 684.381 58.6002 687.281 60.2002Z" fill="black"/>
<path d="M323.75 162.881C322.711 164.533 315.356 181.248 312.238 189.129L309.6 195.802L304.404 196.882C301.526 197.454 294.971 198.662 289.854 199.615C282.899 200.886 280.581 201.522 281.061 202.094C281.78 203.047 291.533 209.784 299.048 214.486C304.484 217.855 304.484 217.918 304.004 220.524C301.526 235.332 300.167 253 301.526 253C301.766 253 302.965 251.538 304.084 249.822C307.282 245.119 318.713 229.994 320.232 228.532C321.591 227.324 321.751 227.388 328.466 230.693C338.459 235.586 349.171 240.162 349.731 239.717C349.971 239.527 349.651 238.7 349.012 237.938C348.452 237.112 346.853 234.315 345.574 231.71C344.375 229.104 342.616 225.672 341.817 224.083C341.017 222.558 339.419 218.872 338.379 215.885L336.381 210.546L339.738 206.987C342.616 203.937 350.85 195.992 361.083 186.459C363.241 184.489 363.481 183.981 362.282 184.235C361.003 184.616 341.657 188.811 334.142 190.4C330.625 191.162 330.625 191.226 327.907 177.689C327.267 174.384 326.388 169.554 325.988 166.948C325.109 161.673 324.869 161.165 323.75 162.881Z" fill="black"/>
<path d="M151.75 198.679C151.266 200.745 150.056 205.78 149.007 209.846C147.959 213.913 146.587 219.464 146.103 222.11C144.329 230.695 145.135 229.856 138.925 229.856C135.94 229.792 129.89 229.533 125.454 229.275C121.018 228.953 117.227 228.823 117.065 228.953C116.339 229.469 121.663 234.633 133.762 245.283C137.15 248.253 140.376 251.157 140.941 251.738C141.586 252.513 141.667 255.288 141.102 261.808C140.296 273.168 140.215 287.95 141.022 287.95C141.344 287.95 142.151 287.24 142.796 286.401C147.313 280.591 159.251 267.875 160.139 268.069C160.945 268.198 168.689 273.749 180.707 282.786C183.692 285.045 190.387 289.305 190.387 288.983C190.387 288.789 189.338 286.982 188.048 284.916C182.885 276.589 172.641 255.934 172.641 253.739C172.641 252.706 187.483 234.826 190.871 231.728C191.516 231.212 192 230.437 192 230.114C192 229.792 185.87 229.533 177.723 229.533H163.446L161.994 225.015C159.735 218.044 155.138 201.519 154.492 198.034C154.25 196.356 153.686 195 153.282 195C152.96 195 152.234 196.678 151.75 198.679Z" fill="black"/>
<path d="M309.728 325.151C313.921 334.79 314.237 333.776 306.801 335.488C303.32 336.312 300.71 337.137 301.026 337.39C301.342 337.644 305.535 339.039 310.203 340.561L318.746 343.288L323.335 350.644L328.002 358L328.793 355.463C329.268 354.068 329.901 351.722 330.217 350.2C330.533 348.741 331.008 347.41 331.324 347.22C331.641 347.093 335.913 347.917 340.817 349.122C345.722 350.39 349.915 351.278 349.994 351.151C350.152 351.024 347.146 348.932 343.349 346.459C332.353 339.293 332.828 339.863 334.172 334.029C334.805 331.239 335.28 328.639 335.122 328.195C334.963 327.624 333.223 327.941 328.635 329.337L322.464 331.302L314.949 325.151C310.835 321.79 307.355 319 307.196 319C307.117 319 308.225 321.79 309.728 325.151Z" fill="black"/>
<path d="M262.531 411.079C264.692 416.984 268.773 434.192 268.133 434.7C267.733 435.017 247.806 435.843 235.802 436.033L229 436.16L234.202 438.065C237.083 439.144 241.404 440.668 243.805 441.43C258.77 446.319 268.613 449.367 269.333 449.367C271.334 449.367 271.814 452.161 271.494 461.876C271.254 467.4 270.854 472.416 270.614 472.987C269.413 475.464 273.735 473.495 285.819 466.003C287.419 464.987 296.062 459.844 297.582 458.955C298.783 458.257 299.663 458.193 302.064 458.828C314.788 462.066 341.757 468.352 341.997 468.162C342.157 468.035 336.075 463.209 328.553 457.431L314.788 446.891L320.71 441.938C327.992 435.906 335.275 428.985 334.795 428.604C334.554 428.477 328.553 429.049 321.35 429.938C299.903 432.604 296.462 432.858 294.621 431.906C293.741 431.461 286.299 426.318 277.976 420.54C269.733 414.762 262.771 410 262.531 410C262.291 410 262.291 410.508 262.531 411.079Z" fill="black"/>
<path d="M854.281 598.2C852.081 600.6 849.881 603.8 849.481 605.5C848.081 611.1 847.781 621.2 848.881 622.3C849.481 622.9 849.981 624.6 849.981 626C849.981 630 858.381 645.8 863.181 650.7C871.281 659.1 881.681 661.4 891.481 657.1C906.181 650.6 920.381 622.8 916.981 607.4C913.581 592.4 898.881 589.6 885.081 601.3C880.681 605 876.881 604.8 872.281 600.7C862.981 592.5 860.181 592.1 854.281 598.2ZM867.281 605C875.081 612.1 879.381 612.6 889.681 607.5C900.381 602.3 905.981 603.2 904.481 609.8C903.381 614.9 894.481 628.3 888.181 634.3C880.681 641.4 877.781 641.8 872.881 636.3C866.481 628.9 857.981 607.8 859.481 602.9C860.381 600 862.581 600.6 867.281 605Z" fill="black"/>
<path d="M1481.98 567.683V631.366H1493.11C1502.6 631.366 1504.66 630.718 1505.69 627.048C1507.34 621.651 1509.2 621.651 1513.94 627.048C1518.89 632.661 1530.02 634.604 1539.71 631.581C1562.39 624.458 1573.52 584.953 1560.33 557.968C1551.05 538.972 1536 534.438 1513.53 544.153C1511.46 545.016 1510.84 540.483 1510.84 524.724V504H1496.41H1481.98V567.683ZM1532.29 569.194C1536 574.807 1536.82 594.883 1533.52 601.143C1530.02 608.051 1523.63 610.426 1516.82 607.619C1510.84 605.029 1510.84 604.813 1510.84 586.896C1510.84 572.216 1511.46 568.546 1514.56 566.819C1520.74 562.934 1528.99 564.013 1532.29 569.194Z" fill="black"/>
<path d="M1117.98 571.107V630H1141.62C1177.6 630 1192.04 624.025 1203.12 604.821C1208.56 595.432 1208.98 593.085 1208.98 571.32C1208.98 545.928 1207.31 540.38 1196.01 528.857C1185.34 517.761 1174.46 514.347 1144.76 513.067L1117.98 512V571.107ZM1171.33 544.647C1178.44 551.476 1181.37 562.358 1180.11 575.588C1178.44 592.018 1174.05 599.06 1163.17 603.327C1147.48 609.515 1147.27 609.089 1147.27 571.107V537.606L1156.89 538.886C1162.75 539.526 1168.19 541.66 1171.33 544.647Z" fill="black"/>
<path d="M1328.65 518.508C1327.83 519.154 1327.21 522.385 1327.21 525.4C1327.21 536.17 1324.95 540.478 1319.19 541.124C1314.26 541.77 1313.85 542.632 1313.23 552.971C1312.61 563.741 1312.82 564.387 1317.55 564.387C1322.48 564.387 1322.69 564.602 1323.51 587.434C1324.33 613.712 1327.42 622.112 1338.11 629.22C1343.46 632.667 1347.36 633.313 1358.46 632.882C1366.07 632.451 1372.86 631.59 1373.47 630.728C1374.3 630.082 1374.09 625.128 1373.06 619.958C1371.42 611.558 1370.8 610.696 1364.63 610.05C1354.35 608.973 1351.68 602.511 1352.3 582.48L1352.91 565.464L1362.78 564.817L1372.45 564.171V552.54V540.909L1362.78 540.263L1352.91 539.616L1352.3 528.2L1351.68 517H1340.78C1334.82 517 1329.27 517.646 1328.65 518.508Z" fill="black"/>
<path d="M1247.08 541.836C1242.31 543.342 1235.89 546.139 1233.2 548.075L1228.23 551.516L1232.58 559.691C1235.07 563.993 1237.34 568.08 1237.55 568.51C1237.97 568.725 1242.93 567.435 1248.73 565.499C1260.53 561.412 1268.2 562.487 1271.3 568.51C1273.16 572.167 1272.54 572.813 1263.64 574.103C1250.39 576.039 1234.86 583.353 1230.1 589.806C1225.13 596.26 1224.51 611.318 1229.06 620.352C1235.27 633.044 1251.63 636.701 1266.33 628.957C1276.06 623.794 1277.72 623.579 1277.72 627.881C1277.72 630.463 1280.41 631.108 1290.35 631.108H1302.98L1302.36 597.12C1301.53 568.08 1300.91 562.272 1297.39 555.819C1289.11 540.976 1267.99 534.953 1247.08 541.836ZM1273.58 597.12C1273.58 603.789 1267.57 609.597 1260.74 609.597C1249.35 609.597 1251.42 597.766 1263.64 593.248C1271.72 590.452 1273.58 591.097 1273.58 597.12Z" fill="black"/>
<path d="M1402.13 542.302C1386.37 548.109 1385.53 549.4 1390.15 559.939C1394.36 569.618 1393.52 569.403 1411.59 564.026C1418.95 561.66 1420.84 561.875 1425.67 564.886C1433.45 570.263 1432.4 572.199 1421.26 573.92C1405.92 576.07 1389.94 584.244 1386.16 591.987C1381.96 600.16 1381.96 611.99 1385.95 620.163C1392.25 632.853 1411.17 636.94 1424.41 628.767C1432.61 623.605 1435.34 623.39 1435.34 627.691C1435.34 630.272 1438.07 630.918 1448.16 630.918H1460.98L1460.14 596.934C1459.51 560.154 1457.62 553.486 1445.64 544.238C1437.44 538.215 1416.42 537.14 1402.13 542.302ZM1431.14 598.655C1431.14 605.537 1426.3 609.409 1417.9 609.409C1412.43 609.409 1409.49 605.107 1411.38 599.945C1412.64 596.504 1426.93 589.836 1429.67 591.557C1430.51 591.987 1431.14 595.213 1431.14 598.655Z" fill="black"/>
<path d="M1599.74 541.339C1595.04 543.065 1588.69 545.871 1586.03 547.812L1581.12 551.265L1585.42 559.464C1587.88 563.78 1590.13 567.88 1590.33 568.311C1590.74 568.527 1595.65 567.232 1601.38 565.29C1613.04 561.191 1620.61 562.27 1623.68 568.311C1625.52 571.979 1624.91 572.627 1616.11 573.921C1602.2 576.079 1587.67 583.2 1582.97 590.105C1578.06 597.441 1577.65 611.467 1581.94 620.313C1588.08 633.044 1604.24 636.712 1618.77 628.944C1628.38 623.766 1630.02 623.55 1630.02 627.866C1630.02 630.455 1632.68 631.102 1642.5 631.102H1654.98L1654.16 597.01C1653.55 560.112 1651.71 553.423 1640.05 544.144C1632.89 538.75 1611.81 537.239 1599.74 541.339ZM1625.93 597.657C1625.93 604.562 1620.81 609.525 1613.65 609.525C1602.2 609.525 1603.22 598.736 1615.29 593.773C1624.09 590.105 1625.93 590.752 1625.93 597.657Z" fill="black"/>
<path d="M1693.03 540.426C1680.18 544.721 1671.68 558.467 1673.96 571.355C1675.82 581.45 1685.15 590.685 1698 595.411C1710.86 600.136 1714.18 603.572 1710.44 608.083C1706.92 612.593 1699.46 612.164 1689.5 606.794C1684.74 604.432 1680.8 602.713 1680.59 603.143C1680.38 603.572 1677.69 607.439 1674.58 611.734C1671.47 616.03 1668.98 620.111 1668.98 620.755C1668.98 621.4 1672.92 624.192 1677.9 626.769C1689.5 633.213 1716.87 633.857 1725.58 627.843C1734.91 621.4 1739.88 611.52 1738.85 600.995C1737.6 588.967 1733.25 584.242 1715.21 575.65C1706.92 571.569 1700.08 567.488 1700.08 566.415C1700.08 565.126 1701.94 563.193 1704.43 561.689C1707.96 559.971 1710.86 560.186 1718.32 562.978C1727.65 566.844 1727.65 566.844 1731.59 561.689C1740.3 550.306 1740.3 549.447 1730.76 544.506C1721.22 539.352 1702.15 537.419 1693.03 540.426Z" fill="black"/>
<path d="M1778.75 541.924C1749.37 552.675 1741.09 598.903 1764.68 621.05C1775.02 630.726 1785.16 634.166 1799.85 632.661C1810.4 631.801 1826.95 625.565 1826.95 622.77C1826.95 622.125 1825.09 618.255 1822.61 614.169C1818.68 607.504 1818.06 607.074 1810.82 608.794C1795.92 612.019 1785.78 609.224 1781.44 601.053C1779.37 596.968 1779.99 596.753 1802.95 596.753C1830.88 596.753 1832.54 595.678 1830.26 576.542C1826.75 547.299 1804.4 532.248 1778.75 541.924ZM1802.95 567.081C1804.82 569.661 1806.26 572.671 1806.26 573.531C1806.26 574.606 1800.26 575.251 1792.82 575.251C1778.54 575.251 1776.68 573.746 1783.51 566.651C1789.09 560.845 1799.02 561.06 1802.95 567.081Z" fill="black"/>
<path d="M1150.85 276.44C1132.78 280.966 1121.48 294.325 1121.48 311.348C1121.48 329.664 1129.08 338.068 1157.01 350.566C1172.61 357.677 1176.52 363.064 1169.53 368.451C1163.99 372.76 1154.13 371.898 1142.84 365.865L1132.78 360.478L1125.18 369.744C1121.07 374.7 1117.78 379.656 1117.99 380.948C1119.22 386.12 1142.22 395.601 1156.39 396.679C1168.92 397.54 1172 396.894 1181.86 391.938C1198.69 383.319 1206.09 367.589 1201.77 350.35C1198.69 338.499 1190.48 331.388 1170.97 323.415C1161.53 319.537 1152.69 314.796 1151.67 312.641C1146.12 303.376 1162.96 298.85 1178.36 305.53C1182.27 307.254 1185.76 308.763 1186.17 308.763C1186.37 308.763 1189.45 304.453 1193.15 299.066L1199.72 289.585L1191.92 284.198C1179.8 275.794 1164.61 272.993 1150.85 276.44Z" fill="black"/>
<path d="M1256.79 305.922C1248.42 310.254 1247.58 310.47 1245.69 307.222C1244.23 304.406 1240.88 303.539 1232.5 303.539H1220.98V365.27V427H1235.64H1250.3V408.589C1250.3 398.409 1250.72 390.178 1251.35 390.178C1251.98 390.178 1254.91 391.695 1257.84 393.644C1264.33 398.192 1280.04 396.676 1287.79 390.828C1311.04 372.851 1312.29 324.766 1289.88 307.222C1281.3 300.724 1267.68 300.29 1256.79 305.922ZM1272.08 332.13C1275.85 337.762 1276.69 357.905 1273.34 364.187C1269.78 371.118 1263.29 373.5 1256.37 370.685C1250.3 368.085 1250.3 367.869 1250.3 349.891C1250.3 335.163 1250.93 331.48 1254.07 329.748C1260.35 325.849 1268.73 326.932 1272.08 332.13Z" fill="black"/>
<path d="M1339.19 306.281C1334.4 307.989 1327.95 310.765 1325.24 312.687L1320.25 316.104L1324.62 324.22C1327.12 328.491 1329.41 332.549 1329.61 332.976C1330.03 333.189 1335.03 331.908 1340.86 329.986C1352.72 325.928 1360.42 326.996 1363.55 332.976C1365.42 336.606 1364.8 337.247 1355.84 338.528C1342.52 340.45 1326.91 347.711 1322.12 354.118C1317.12 360.525 1316.5 375.474 1321.08 384.444C1327.32 397.044 1343.77 400.674 1358.55 392.986C1368.33 387.861 1370 387.647 1370 391.918C1370 394.481 1372.71 395.122 1382.49 395.122H1394.98V366.718C1394.77 326.569 1391.23 314.823 1377.08 307.776C1368.75 303.504 1350.01 302.65 1339.19 306.281ZM1365.84 361.379C1365.84 368 1359.8 373.766 1352.93 373.766C1341.48 373.766 1343.56 362.02 1355.84 357.535C1363.96 354.759 1365.84 355.4 1365.84 361.379Z" fill="black"/>
<path d="M1440.97 306.17C1430.14 309.824 1418.23 320.571 1413.98 330.458C1409.52 340.775 1410.16 363.988 1415.05 373.66C1425.25 393.864 1448.41 402.891 1470.72 395.369C1483.05 391.07 1484.33 388.92 1479.01 378.389C1475.19 370.866 1473.7 369.576 1469.87 370.866C1457.97 374.735 1454.15 374.52 1448.41 369.361C1441.4 363.343 1438.85 349.587 1442.89 339.485C1446.5 330.888 1457.76 325.514 1464.56 329.168C1468.6 331.318 1469.87 330.888 1474.12 325.514C1483.48 314.123 1483.9 312.188 1478.16 308.534C1470.94 303.591 1452.24 302.516 1440.97 306.17Z" fill="black"/>
<path d="M1514.3 305.867C1497.35 313.898 1487.02 334.951 1489.29 356.221C1492.39 382.484 1511.4 398.979 1536.82 396.809C1547.15 395.941 1560.17 391.6 1564.72 387.476C1565.13 387.042 1563.07 382.918 1560.17 378.143L1555.01 369.461L1546.95 372.5C1541.16 374.453 1536.62 374.67 1532.07 373.368C1525.04 371.198 1517.6 365.337 1517.6 362.082C1517.6 361.214 1528.14 360.345 1541.16 360.345C1556.87 360.345 1565.34 359.477 1566.37 357.958C1569.68 352.315 1567.61 331.912 1562.65 321.711C1554.18 303.914 1533.1 296.968 1514.3 305.867ZM1541.16 330.393C1543.02 332.998 1544.47 336.036 1544.47 336.904C1544.47 337.99 1538.48 338.641 1531.04 338.641C1516.36 338.641 1513.47 335.385 1522.15 329.091C1528.97 324.099 1537.44 324.75 1541.16 330.393Z" fill="black"/>
<path d="M1643.46 36.5056C1642.61 37.1509 1641.98 60.8102 1641.98 88.9864C1641.98 146.199 1643.46 155.018 1654.87 160.825C1660.99 164.266 1677.26 165.127 1681.48 162.331C1685.28 159.965 1681.27 142.758 1675.99 139.101C1671.76 135.875 1671.55 134.369 1671.55 85.33V35H1658.25C1650.85 35 1644.09 35.6453 1643.46 36.5056Z" fill="black"/>
<path d="M1135.3 99.6055C1126.42 130.329 1118.78 157.158 1118.16 159.105C1117.33 162.567 1118.98 163 1131.79 163H1146.44L1148.51 154.778C1149.75 150.451 1150.78 145.042 1150.78 142.878C1150.78 139.633 1153.05 139.2 1168.12 139.2H1185.67L1187.95 151.1L1190.22 163H1205.7C1214.17 163 1220.98 162.567 1220.98 162.135C1220.98 160.187 1187.95 48.1109 1186.91 46.1636C1186.29 44.8655 1178.03 44 1168.54 44H1151.4L1135.3 99.6055ZM1174.52 90.9509C1177.21 102.635 1178.86 112.804 1178.45 113.669C1177.83 114.751 1173.29 115.4 1168.12 115.4C1158.01 115.4 1157.39 114.102 1160.9 100.255C1161.93 96.1436 1163.99 87.0564 1165.23 80.1327C1166.68 73.2091 1168.12 68.0164 1168.74 68.6655C1169.36 69.0982 1171.84 79.2673 1174.52 90.9509Z" fill="black"/>
<path d="M1417.15 59.192C1415.49 69.5231 1414.66 70.5993 1409.06 71.6755C1403.26 72.7516 1402.84 73.3973 1402.22 83.9437C1401.6 94.7052 1401.81 95.1357 1407.41 95.7814L1413.21 96.4271L1414.25 120.103C1415.49 147.652 1418.6 155.4 1430 160.997C1435.6 163.579 1441.19 164.44 1450.73 163.795C1457.98 163.364 1464.2 162.503 1464.83 161.857C1465.24 161.427 1464.83 156.261 1463.58 150.665C1461.72 141.41 1461.09 140.55 1455.7 140.55C1445.55 140.55 1443.27 136.03 1443.27 114.722V95.5662L1453.22 94.9205L1462.96 94.2748L1463.58 82.8675L1464.2 71.6755H1453.84H1443.27V59.8377V48H1431.04H1419.01L1417.15 59.192Z" fill="black"/>
<path d="M1350.84 72.3533C1347.32 73.4245 1341.71 77.2808 1338.39 80.9229C1333 86.7074 1332.17 89.2782 1332.17 99.1333C1332.17 113.273 1335.49 117.344 1353.75 126.342C1368.89 133.626 1371.38 136.197 1368.06 140.267C1364.95 144.338 1356.03 143.695 1347.11 138.768C1342.96 136.411 1339.02 134.483 1338.6 134.483C1337.77 134.483 1326.98 151.194 1326.98 152.693C1326.98 156.121 1346.28 163.191 1358.1 163.834C1375.53 165.119 1388.4 158.906 1394.21 146.695C1401.68 130.627 1393.79 115.416 1373.67 107.703C1359.97 102.561 1356.65 99.3475 1360.18 95.0627C1363.71 90.5637 1368.06 90.7779 1377.19 95.7054L1384.66 99.9902L1390.06 91.8491C1392.96 87.5643 1395.45 82.851 1395.45 81.7798C1395.45 74.7099 1363.91 68.0685 1350.84 72.3533Z" fill="black"/>
<path d="M1524.17 71.3585C1522.49 72.0085 1517.44 76.1248 1513.23 80.241C1506.08 87.1737 1505.23 87.607 1505.23 83.4907C1505.23 73.7417 1503.13 72.0085 1491.34 72.0085H1479.98V117.504V163H1494.71H1509.44V136.352C1509.44 104.289 1511.55 99.9559 1527.54 98.2227L1537.85 96.9228L1540.38 85.2239C1541.64 78.7245 1542.27 72.4418 1541.85 71.5752C1540.59 69.6254 1529.22 69.4087 1524.17 71.3585Z" fill="black"/>
<path d="M1569.11 72.4302C1558.75 75.203 1549 80.5353 1549 83.5213C1549 84.8011 1551.08 89.0669 1553.36 93.1194C1556.47 98.0251 1558.95 100.158 1561.23 99.3048C1579.06 93.3327 1581.76 92.9061 1587.15 96.5321C1594.82 101.864 1593.78 103.784 1582.8 105.277C1568.91 107.41 1552.73 115.728 1548.38 123.407C1544.03 131.085 1543.82 141.11 1547.97 150.068C1554.39 163.932 1571.6 168.198 1586.74 159.453C1594.41 154.974 1595.03 154.974 1596.89 158.386C1598.55 161.159 1601.66 162.012 1610.37 162.012H1621.98L1621.15 127.033C1620.53 89.0669 1619.7 86.0808 1606.64 76.0562C1600.63 71.3638 1580.93 69.4442 1569.11 72.4302ZM1592.54 129.592C1592.54 132.791 1591.5 136.631 1590.05 138.124C1586.53 141.75 1576.99 141.323 1573.67 137.271C1571.39 134.284 1571.6 133.005 1576.58 128.739C1579.89 125.966 1584.66 123.62 1587.56 123.62C1591.71 123.62 1592.54 124.686 1592.54 129.592Z" fill="black"/>
<path d="M1767.44 71.7835C1759.19 73.9353 1745.78 79.9605 1745.78 81.4668C1745.78 82.1123 1747.64 86.6312 1750.11 91.3652C1753.62 98.6815 1755.06 99.9726 1758.78 98.6815C1776.93 92.8715 1778.79 92.6563 1783.94 96.3145C1790.13 100.618 1790.54 104.061 1785.18 104.061C1783.12 104.061 1775.28 105.998 1768.06 108.365C1747.02 115.035 1738.15 128.592 1743.51 145.592C1748.87 162.591 1766.2 168.831 1782.91 160.009C1791.16 155.705 1792.19 155.49 1794.26 158.718C1796.11 161.085 1800.03 162.161 1807.46 162.161H1817.98V129.238C1817.98 89.2134 1815.3 80.606 1801.07 73.9353C1791.99 69.6317 1778.58 68.7709 1767.44 71.7835ZM1789.1 129.668C1789.1 137.415 1784.77 141.073 1777.34 140.212C1772.8 139.782 1771.57 138.49 1771.57 134.187C1771.57 130.314 1773.42 127.946 1778.58 125.149C1787.04 120.845 1789.1 121.706 1789.1 129.668Z" fill="black"/>
<path d="M1883.55 72.1566C1880.86 73.2407 1876.11 76.0592 1873.02 78.4441C1867.03 82.9971 1864.76 82.3467 1864.76 75.8424C1864.76 72.5903 1863.11 71.9398 1852.37 71.9398H1839.98V117.47V163H1854.43H1868.89V133.947C1868.89 105.112 1868.89 104.678 1874.25 100.342C1880.24 95.3553 1884.78 94.7049 1889.53 97.957C1892.01 99.4747 1892.84 106.413 1893.25 131.563L1893.87 163H1908.53H1922.98L1922.15 126.576C1921.54 97.0898 1920.71 89.0678 1917.82 83.2139C1912.04 71.9398 1896.14 66.7364 1883.55 72.1566Z" fill="black"/>
<path d="M1232.19 73.7119C1231.98 74.7819 1231.98 90.6171 1231.98 109.02C1232.19 147.539 1234.67 156.954 1246.69 162.09C1255.6 165.942 1270.1 163.802 1278.59 157.168C1285.84 151.39 1288.12 151.604 1288.12 158.238C1288.12 161.448 1289.78 162.09 1300.55 162.09H1312.98V117.152V72L1298.07 72.642L1282.94 73.2839L1281.91 104.313L1280.87 135.341L1275.07 137.267C1263.47 141.547 1262.23 138.551 1261.6 103.457L1260.98 72.214H1246.69C1238.61 72.214 1232.19 72.856 1232.19 73.7119Z" fill="black"/>
<path d="M1696.38 73.5167C1695.58 74.1667 1694.98 94.75 1694.98 119.017V163H1709.98H1724.98V117.5V72H1711.38C1703.78 72 1696.98 72.65 1696.38 73.5167Z" fill="black"/>
<path d="M1700.11 33.525C1694.1 38.8645 1693.29 47.5412 1698.11 55.1055C1700.51 58.8876 1703.12 60 1709.74 60C1719.97 60 1724.98 55.1055 1724.98 45.3164C1724.98 37.5297 1723.38 34.8599 1717.56 31.3003C1711.14 27.7406 1706.13 28.1855 1700.11 33.525Z" fill="black"/>
</svg>
