<?xml version="1.0" standalone="no"?>
<!DOCTYPE svg PUBLIC "-//W3C//DTD SVG 20010904//EN"
 "http://www.w3.org/TR/2001/REC-SVG-20010904/DTD/svg10.dtd">
<svg version="1.0" xmlns="http://www.w3.org/2000/svg"
 width="1015.000000pt" height="752.000000pt" viewBox="0 0 1015.000000 752.000000"
 preserveAspectRatio="xMidYMid meet">

<g transform="translate(0.000000,752.000000) scale(0.100000,-0.100000)"
fill="#000000" stroke="none">
<path d="M1562 7488 c-12 -15 -212 -413 -212 -422 0 -4 -11 -24 -25 -46 l-25
-40 -175 0 c-105 0 -175 -4 -175 -10 0 -10 38 -71 72 -114 13 -16 32 -44 43
-62 11 -18 37 -57 58 -87 20 -30 37 -60 37 -68 0 -8 -27 -86 -61 -174 -56
-148 -129 -363 -129 -379 0 -4 77 72 172 169 l172 177 26 -30 c43 -49 164
-204 208 -265 l24 -32 -6 90 c-3 50 -8 172 -11 272 l-5 183 36 40 c20 22 110
106 200 187 90 80 163 147 161 148 -2 3 -190 -10 -311 -20 l-69 -5 6 250 c3
137 5 250 3 250 -2 0 -8 -6 -14 -12z"/>
<path d="M6582 7225 c-27 -34 -28 -64 -2 -117 11 -23 20 -52 20 -64 0 -39 -52
-45 -125 -14 -55 24 -119 26 -166 6 -65 -28 -169 -163 -169 -220 0 -8 -4 -18
-10 -21 -5 -3 -10 -39 -10 -79 0 -53 -4 -77 -15 -86 -8 -7 -15 -18 -15 -24 0
-19 -65 -56 -98 -56 -41 0 -103 39 -139 87 -110 148 -212 192 -358 158 -45
-11 -169 -137 -185 -188 -8 -23 -17 -46 -22 -51 -4 -6 -8 -34 -8 -62 0 -29 -4
-56 -10 -59 -5 -3 -10 -19 -10 -35 0 -55 -51 -91 -200 -141 -52 -17 -104 -40
-116 -50 -11 -11 -23 -17 -25 -14 -3 2 -26 -15 -52 -39 -32 -29 -63 -74 -97
-141 -28 -54 -50 -104 -50 -112 0 -7 -4 -21 -9 -31 -5 -9 -15 -37 -22 -62 -7
-25 -23 -56 -36 -71 -13 -14 -23 -30 -23 -35 0 -6 -16 -25 -35 -44 -19 -19
-35 -30 -35 -25 0 4 -8 2 -17 -6 -40 -33 -150 -75 -283 -109 -25 -6 -59 -16
-76 -21 -17 -5 -38 -9 -48 -9 -9 0 -36 -9 -58 -20 -23 -11 -47 -20 -53 -20
-14 0 -86 -37 -142 -73 -24 -15 -46 -27 -50 -27 -5 0 -51 -43 -103 -95 -52
-52 -100 -95 -107 -95 -31 0 -143 -196 -143 -249 0 -16 -4 -32 -9 -35 -5 -3
-11 -23 -14 -43 -3 -21 -11 -58 -18 -83 -22 -79 -13 -370 12 -386 5 -3 9 -15
9 -27 0 -22 20 -87 45 -142 7 -16 19 -46 26 -65 7 -19 26 -54 41 -76 15 -23
28 -46 28 -51 0 -6 9 -18 20 -28 11 -10 18 -21 15 -25 -2 -3 59 -69 136 -146
123 -122 161 -164 204 -233 6 -9 23 -35 38 -58 15 -24 27 -49 27 -57 0 -9 9
-31 20 -51 16 -29 20 -54 20 -140 0 -58 -4 -107 -10 -110 -5 -3 -10 -14 -10
-23 0 -10 -13 -44 -30 -77 -22 -45 -29 -74 -30 -118 0 -58 1 -59 57 -118 40
-43 79 -70 132 -96 69 -33 84 -36 166 -37 126 -1 205 30 380 147 138 93 165
102 320 99 141 -2 217 8 303 40 44 17 79 43 166 128 61 58 140 126 175 149
101 69 264 139 391 169 25 6 70 17 100 24 77 18 403 18 450 -1 64 -25 140 -62
145 -72 4 -5 10 -7 14 -5 22 14 161 -167 161 -208 0 -55 115 -196 160 -196 51
0 89 36 129 123 40 87 106 160 155 173 36 9 46 -2 44 -46 -1 -32 -9 -47 -50
-87 -54 -52 -82 -106 -73 -138 3 -11 17 -33 31 -49 27 -31 74 -38 113 -16 27
14 84 13 103 -2 23 -18 38 -82 38 -166 0 -89 17 -210 34 -237 7 -11 18 -39 26
-62 7 -24 17 -43 22 -43 4 0 8 -7 8 -15 0 -26 23 -58 100 -138 102 -106 187
-148 312 -155 104 -5 171 13 260 70 95 61 123 61 194 -4 87 -79 146 -77 264 8
32 23 40 25 100 19 36 -4 68 -12 71 -17 10 -16 90 -21 138 -8 47 12 123 76
147 123 8 15 24 69 35 118 25 116 46 171 105 271 78 132 167 248 335 432 257
284 399 734 360 1139 -20 199 -65 388 -125 519 -82 180 -105 222 -187 346 -86
127 -121 167 -374 417 -209 207 -247 250 -277 310 -40 78 -63 158 -73 255 -11
107 -33 198 -60 255 -31 63 -161 198 -269 280 -130 97 -166 176 -166 360 0
122 -12 169 -55 212 -46 46 -71 43 -126 -14 -58 -62 -83 -99 -100 -148 -7 -22
-22 -55 -31 -73 -10 -18 -18 -45 -18 -60 0 -16 -4 -32 -9 -37 -15 -17 -23
-101 -27 -310 -3 -110 -9 -204 -14 -209 -6 -6 -10 -18 -10 -28 0 -10 -4 -26
-8 -36 -5 -9 -15 -30 -23 -47 -10 -21 -33 -39 -74 -60 -54 -27 -69 -30 -145
-28 -98 2 -169 22 -286 81 -149 75 -325 226 -373 320 -26 51 -28 137 -4 172 9
14 53 64 99 111 67 70 83 93 89 128 9 56 -18 108 -71 135 -36 19 -53 21 -229
18 -220 -4 -265 5 -387 79 -56 34 -83 44 -128 47 -52 4 -59 2 -78 -23z m91
-37 c12 -6 50 -37 84 -68 135 -123 214 -141 427 -95 95 20 136 25 163 18 80
-19 65 -65 -46 -137 -141 -91 -202 -182 -204 -304 -1 -135 56 -251 197 -399
202 -213 400 -314 611 -315 224 0 373 103 436 300 28 89 36 294 19 504 -11
125 -11 175 -1 244 19 138 65 234 112 234 41 0 50 -65 29 -218 -26 -186 19
-313 170 -476 134 -146 144 -169 160 -403 24 -349 98 -503 400 -833 239 -260
359 -456 450 -727 153 -463 107 -844 -149 -1227 -198 -296 -308 -540 -361
-807 -26 -134 -35 -155 -71 -170 -25 -10 -43 -9 -102 5 -108 26 -174 3 -247
-84 -58 -69 -77 -67 -132 12 -80 116 -165 133 -333 67 -66 -26 -90 -30 -140
-27 -82 5 -159 44 -234 117 -102 101 -146 199 -161 363 -21 221 -107 294 -280
238 -38 -12 -76 -20 -85 -16 -27 10 -16 47 27 90 65 64 88 104 88 150 0 47 -6
58 -39 75 -29 16 -80 7 -140 -24 -65 -33 -108 -79 -147 -157 -19 -37 -40 -68
-48 -68 -24 0 -47 37 -82 130 -48 132 -87 195 -169 276 -197 196 -537 260
-890 168 -249 -66 -423 -160 -600 -323 -112 -104 -157 -122 -323 -132 -204
-12 -280 -44 -492 -205 -131 -99 -197 -133 -274 -141 -101 -10 -216 51 -216
116 0 15 22 69 49 121 62 121 81 185 81 280 0 170 -81 346 -283 618 -136 183
-197 346 -197 527 0 116 20 198 75 310 67 138 188 260 332 333 23 12 97 40
165 63 229 78 342 142 442 250 86 92 123 172 182 394 52 195 80 233 227 306
142 72 213 161 251 313 31 124 67 174 133 182 49 6 93 -20 136 -83 56 -82 105
-129 169 -164 83 -44 167 -46 244 -6 105 54 154 146 164 312 13 210 82 291
206 239 59 -25 128 -15 167 25 42 41 42 96 3 164 -23 39 -26 50 -16 62 15 18
34 19 63 3z"/>
<path d="M2592 6053 c-13 -26 -105 -289 -144 -413 l-33 -105 -65 -17 c-36 -9
-118 -28 -182 -43 -87 -20 -116 -30 -110 -39 9 -15 131 -121 225 -195 68 -53
68 -54 62 -95 -31 -233 -48 -511 -31 -511 3 0 18 23 32 50 40 74 183 312 202
335 17 19 19 18 103 -34 125 -77 259 -149 266 -142 3 3 -1 16 -9 28 -7 13 -27
57 -43 98 -15 41 -37 95 -47 120 -10 24 -30 82 -43 129 l-25 84 42 56 c36 48
139 173 267 323 27 31 30 39 15 35 -16 -6 -258 -72 -352 -97 -44 -12 -44 -13
-78 200 -8 52 -19 128 -24 169 -11 83 -14 91 -28 64z"/>
<path d="M451 5493 c-6 -32 -21 -110 -34 -173 -13 -63 -30 -149 -36 -190 -22
-133 -12 -120 -89 -120 -37 1 -112 5 -167 9 -55 5 -102 7 -104 5 -9 -8 57 -88
207 -253 42 -46 82 -91 89 -100 8 -12 9 -55 2 -156 -10 -176 -11 -405 -1 -405
4 0 14 11 22 24 56 90 204 287 215 284 10 -2 106 -88 255 -228 37 -35 120
-101 120 -96 0 3 -13 31 -29 63 -64 129 -191 449 -191 483 0 16 184 293 226
341 8 8 14 20 14 25 0 5 -76 9 -177 9 l-177 0 -18 70 c-28 108 -85 364 -93
418 -3 26 -10 47 -15 47 -4 0 -13 -26 -19 -57z"/>
<path d="M2417 3523 c53 -152 57 -136 -37 -163 -44 -13 -77 -26 -73 -30 4 -4
57 -26 116 -50 l108 -43 58 -116 59 -116 10 40 c6 22 14 59 18 83 4 23 10 44
14 47 4 2 58 -11 120 -30 62 -20 115 -34 116 -32 2 2 -36 35 -84 74 -139 113
-133 104 -116 196 8 44 14 85 12 92 -2 9 -24 4 -82 -18 l-78 -31 -95 97 c-52
53 -96 97 -98 97 -1 0 13 -44 32 -97z"/>
<path d="M1834 2193 c27 -93 78 -364 70 -372 -5 -5 -254 -18 -404 -21 l-85 -2
65 -30 c36 -17 90 -41 120 -53 187 -77 310 -125 319 -125 25 0 31 -44 27 -197
-3 -87 -8 -166 -11 -175 -15 -39 39 -8 190 110 20 16 128 97 147 111 15 11 26
12 56 2 159 -51 496 -150 499 -147 2 2 -74 78 -168 169 l-172 166 74 78 c91
95 182 204 176 210 -3 2 -78 -7 -168 -21 -268 -42 -311 -46 -334 -31 -11 7
-104 88 -208 179 -103 91 -190 166 -193 166 -3 0 -3 -8 0 -17z"/>
<path d="M8343 1808 c-22 -24 -44 -56 -48 -73 -14 -56 -17 -157 -6 -168 6 -6
11 -23 11 -37 0 -40 84 -198 132 -247 81 -84 185 -107 283 -64 147 65 289 343
255 497 -34 150 -181 178 -319 61 -44 -37 -82 -35 -128 6 -93 82 -121 86 -180
25z m130 -68 c78 -71 121 -76 224 -25 107 52 163 43 148 -23 -11 -51 -100
-185 -163 -245 -75 -71 -104 -75 -153 -20 -64 74 -149 285 -134 334 9 29 31
23 78 -21z"/>
<path d="M2816 759 c-30 -24 -34 -63 -10 -97 12 -17 25 -22 58 -22 51 0 76 22
76 66 0 35 -8 47 -37 63 -32 16 -57 14 -87 -10z"/>
<path d="M2547 743 c-4 -3 -7 -113 -7 -244 0 -266 7 -307 61 -334 29 -16 106
-20 126 -7 18 11 -1 91 -26 108 -20 15 -21 22 -21 250 l0 234 -63 0 c-35 0
-67 -3 -70 -7z"/>
<path d="M8330 455 l0 -295 54 0 c46 0 56 3 61 20 8 25 17 25 40 0 24 -26 78
-35 125 -21 110 33 164 216 100 341 -45 88 -118 109 -227 64 -10 -4 -13 17
-13 90 l0 96 -70 0 -70 0 0 -295z m244 -7 c18 -26 22 -119 6 -148 -17 -32 -48
-43 -81 -30 -29 12 -29 13 -29 96 0 68 3 85 18 93 30 18 70 13 86 -11z"/>
<path d="M4303 710 c-88 -21 -143 -83 -143 -162 0 -85 37 -124 173 -182 76
-33 95 -58 61 -83 -27 -20 -75 -16 -130 12 l-49 25 -37 -43 c-20 -23 -36 -46
-35 -52 6 -24 118 -68 187 -73 61 -4 76 -1 124 22 82 40 118 113 97 193 -15
55 -55 88 -150 125 -46 18 -89 40 -94 50 -27 43 55 64 130 33 19 -8 36 -15 38
-15 1 0 16 20 34 45 l32 44 -38 25 c-59 39 -133 52 -200 36z"/>
<path d="M95 453 c-43 -142 -80 -266 -83 -275 -4 -16 4 -18 66 -18 l71 0 10
38 c6 20 11 45 11 55 0 15 11 17 84 17 l85 0 11 -55 11 -55 75 0 c41 0 74 2
74 4 0 9 -160 527 -165 536 -3 6 -43 10 -89 10 l-83 0 -78 -257z m190 40 c13
-54 21 -101 19 -105 -3 -5 -25 -8 -50 -8 -49 0 -52 6 -35 70 5 19 15 61 21 93
7 32 14 56 17 53 3 -2 15 -49 28 -103z"/>
<path d="M6580 436 l0 -276 113 0 c172 0 241 28 294 118 26 44 28 55 28 157 0
119 -8 145 -62 199 -51 52 -103 68 -245 74 l-128 5 0 -277z m255 124 c34 -32
48 -83 42 -145 -8 -77 -29 -110 -81 -130 -75 -29 -76 -27 -76 151 l0 157 46
-6 c28 -3 54 -13 69 -27z"/>
<path d="M1454 638 c-8 -48 -12 -53 -39 -58 -28 -5 -30 -8 -33 -57 -3 -50 -2
-52 25 -55 l28 -3 5 -110 c6 -128 21 -164 76 -190 27 -12 54 -16 100 -13 35 2
65 6 68 9 2 2 0 26 -6 52 -9 43 -12 47 -38 47 -49 0 -60 21 -60 120 l0 89 48
3 47 3 3 53 3 52 -50 0 -51 0 0 55 0 55 -59 0 -58 0 -9 -52z"/>
<path d="M7597 683 c-4 -3 -7 -18 -7 -32 0 -50 -11 -70 -39 -73 -24 -3 -26 -7
-29 -55 -3 -50 -2 -53 21 -53 24 0 25 -1 29 -107 4 -122 19 -161 71 -194 26
-16 45 -19 99 -17 37 2 70 6 73 10 4 3 3 26 -2 50 -8 39 -11 43 -41 46 -50 5
-63 35 -60 128 l3 79 48 3 47 3 0 54 0 54 -47 3 -48 3 -3 53 -3 52 -53 0 c-29
0 -56 -3 -59 -7z"/>
<path d="M1135 580 c-17 -5 -44 -23 -60 -40 -26 -27 -30 -39 -30 -85 0 -66 16
-85 104 -127 73 -34 85 -46 69 -65 -15 -19 -58 -16 -101 7 -20 11 -39 20 -41
20 -4 0 -56 -78 -56 -85 0 -16 93 -49 150 -52 84 -6 146 23 174 80 36 75 -2
146 -99 182 -66 24 -82 39 -65 59 17 21 38 20 82 -3 l36 -20 26 38 c14 20 26
42 26 47 0 33 -152 64 -215 44z"/>
<path d="M1970 583 c-8 -3 -32 -22 -52 -41 -34 -32 -38 -34 -38 -15 0 45 -10
53 -66 53 l-54 0 0 -210 0 -210 70 0 70 0 0 123 c0 148 10 168 86 176 l49 6
12 54 c6 30 9 59 7 63 -6 9 -60 10 -84 1z"/>
<path d="M2187 580 c-50 -13 -97 -38 -97 -52 0 -6 10 -26 21 -45 15 -23 27
-33 38 -29 86 28 99 30 125 13 37 -25 32 -34 -21 -41 -67 -10 -145 -49 -166
-85 -21 -36 -22 -83 -2 -125 31 -65 114 -85 187 -44 37 21 40 21 49 5 8 -13
23 -17 65 -17 l56 0 -4 164 c-3 178 -7 192 -70 239 -29 22 -124 31 -181 17z
m113 -268 c0 -15 -5 -33 -12 -40 -17 -17 -63 -15 -79 4 -11 14 -10 20 14 40
16 13 39 24 53 24 20 0 24 -5 24 -28z"/>
<path d="M3145 580 c-40 -10 -105 -38 -105 -45 0 -3 9 -24 21 -46 17 -34 24
-40 42 -34 88 27 97 28 122 11 30 -20 32 -36 6 -36 -10 0 -48 -9 -83 -20 -102
-31 -145 -94 -119 -173 26 -79 110 -108 191 -67 40 20 45 21 55 6 9 -11 28
-16 64 -16 l51 0 0 153 c0 186 -13 226 -82 257 -44 20 -109 24 -163 10z m105
-269 c0 -36 -21 -53 -57 -49 -22 2 -28 8 -28 28 0 18 9 29 34 42 41 20 51 16
51 -21z"/>
<path d="M3701 579 c-13 -5 -36 -18 -51 -29 -29 -21 -40 -18 -40 12 0 15 -8
18 -60 18 l-60 0 0 -210 0 -210 70 0 70 0 0 134 c0 133 0 135 26 155 29 23 51
26 74 11 12 -7 16 -39 18 -155 l3 -145 71 0 70 0 -4 168 c-3 136 -7 173 -21
200 -28 52 -105 76 -166 51z"/>
<path d="M4811 569 c-40 -20 -44 -21 -53 -6 -7 13 -23 17 -63 17 l-55 0 0
-285 0 -285 70 0 70 0 0 85 c0 47 2 85 5 85 3 0 17 -7 31 -16 31 -21 106 -14
143 13 111 83 117 305 10 386 -41 30 -106 32 -158 6z m73 -121 c18 -26 22
-119 6 -148 -17 -32 -48 -43 -81 -30 -29 12 -29 13 -29 96 0 68 3 85 18 93 30
18 70 13 86 -11z"/>
<path d="M5212 576 c-23 -8 -54 -21 -67 -30 l-24 -16 21 -38 c12 -20 23 -39
24 -41 2 -1 26 5 54 14 57 19 94 14 109 -14 9 -17 6 -20 -37 -26 -64 -9 -139
-43 -162 -73 -24 -30 -27 -100 -5 -142 30 -59 109 -76 180 -40 47 24 55 25 55
5 0 -12 13 -15 60 -15 l60 0 0 133 c-1 188 -18 243 -86 276 -40 20 -130 24
-182 7z m128 -258 c0 -31 -29 -58 -62 -58 -55 0 -45 55 14 76 39 13 48 10 48
-18z"/>
<path d="M5701 576 c-51 -17 -107 -67 -127 -113 -21 -48 -18 -156 5 -201 48
-94 157 -136 262 -101 58 20 64 30 39 79 -18 35 -25 41 -43 35 -56 -18 -74
-17 -101 7 -33 28 -45 92 -26 139 17 40 70 65 102 48 19 -10 25 -8 45 17 44
53 46 62 19 79 -34 23 -122 28 -175 11z"/>
<path d="M6054 571 c-82 -37 -132 -134 -121 -232 15 -121 107 -197 230 -187
50 4 113 24 135 43 2 2 -8 21 -22 43 l-25 40 -39 -14 c-28 -9 -50 -10 -72 -4
-34 10 -70 37 -70 52 0 4 51 8 114 8 76 0 117 4 122 11 16 26 6 120 -18 167
-41 82 -143 114 -234 73z m130 -113 c9 -12 16 -26 16 -30 0 -5 -29 -8 -65 -8
-71 0 -85 15 -43 44 33 23 74 20 92 -6z"/>
<path d="M7202 575 c-23 -7 -54 -20 -67 -29 l-24 -16 21 -38 c12 -20 23 -39
24 -41 2 -1 26 5 54 14 57 19 94 14 109 -14 9 -17 6 -20 -37 -26 -64 -9 -139
-43 -162 -73 -24 -30 -27 -100 -5 -142 30 -59 109 -76 180 -40 47 24 55 25 55
5 0 -12 13 -15 61 -15 l61 0 -3 158 c-4 135 -7 162 -24 192 -40 69 -142 97
-243 65z m128 -257 c0 -31 -29 -58 -62 -58 -55 0 -45 55 14 76 39 13 48 10 48
-18z"/>
<path d="M7952 572 c-75 -27 -79 -33 -57 -82 20 -45 16 -44 102 -19 35 11 44
10 67 -4 37 -25 32 -34 -21 -42 -73 -10 -149 -48 -167 -84 -20 -38 -20 -93 -1
-131 30 -59 120 -78 183 -40 39 24 52 25 52 5 0 -12 13 -15 61 -15 l61 0 -4
158 c-3 171 -12 202 -69 245 -39 28 -139 33 -207 9z m138 -262 c0 -32 -23 -50
-63 -50 -26 0 -40 20 -31 44 6 16 74 47 87 39 4 -2 7 -17 7 -33z"/>
<path d="M8902 576 c-23 -8 -54 -21 -67 -30 l-24 -16 21 -38 c12 -20 23 -39
24 -41 2 -1 26 5 54 14 57 19 94 14 109 -14 9 -17 6 -20 -37 -26 -68 -10 -139
-43 -162 -75 -24 -34 -26 -99 -5 -140 30 -59 109 -76 180 -40 47 24 55 25 55
5 0 -12 13 -15 61 -15 l61 0 -4 158 c-3 171 -12 202 -69 245 -35 25 -138 32
-197 13z m128 -261 c0 -32 -25 -55 -60 -55 -56 0 -51 50 8 73 43 17 52 14 52
-18z"/>
<path d="M9356 580 c-62 -20 -103 -84 -92 -144 9 -47 54 -90 116 -112 62 -22
78 -38 60 -59 -17 -21 -53 -19 -101 6 -23 11 -42 19 -43 17 -1 -2 -14 -20 -29
-40 -15 -20 -27 -39 -27 -42 0 -3 19 -16 43 -28 56 -30 188 -33 230 -5 45 30
69 76 64 125 -6 56 -27 78 -114 118 -40 19 -73 38 -73 43 0 6 9 15 21 22 17 8
31 7 67 -6 45 -18 45 -18 64 6 42 53 42 57 -4 80 -46 24 -138 33 -182 19z"/>
<path d="M9767 575 c-142 -50 -182 -265 -68 -368 50 -45 99 -61 170 -54 51 4
131 33 131 46 0 3 -9 21 -21 40 -19 31 -22 33 -57 25 -72 -15 -121 -2 -142 36
-10 19 -7 20 104 20 135 0 143 5 132 94 -17 136 -125 206 -249 161z m117 -117
c9 -12 16 -26 16 -30 0 -5 -29 -8 -65 -8 -69 0 -78 7 -45 40 27 27 75 26 94
-2z"/>
<path d="M560 573 c-1 -5 -1 -79 -1 -165 1 -180 13 -224 71 -248 43 -18 113
-8 154 23 35 27 46 26 46 -5 0 -15 8 -18 60 -18 l60 0 0 210 0 211 -72 -3 -73
-3 -5 -145 -5 -145 -28 -9 c-56 -20 -62 -6 -65 158 l-3 146 -69 0 c-39 0 -70
-3 -70 -7z"/>
<path d="M2797 573 c-4 -3 -7 -98 -7 -210 l0 -203 75 0 75 0 0 210 0 210 -68
0 c-38 0 -72 -3 -75 -7z"/>
</g>
</svg>
