<svg width="1011" height="631" viewBox="0 0 1011 631" fill="none" xmlns="http://www.w3.org/2000/svg">
  <path
    d="M154.2 1.20001C153 2.70001 133 42.5 133 43.4C133 43.8 131.9 45.8 130.5 48L128 52H110.5C100 52 93 52.4 93 53C93 54 96.8 60.1 100.2 64.4C101.5 66 103.4 68.8 104.5 70.6C105.6 72.4 108.2 76.3 110.3 79.3C112.3 82.3 114 85.3 114 86.1C114 86.9 111.3 94.7 107.9 103.5C102.3 118.3 95 139.8 95 141.4C95 141.8 102.7 134.2 112.2 124.5L129.4 106.8L132 109.8C136.3 114.7 148.4 130.2 152.8 136.3L155.2 139.5L154.6 130.5C154.3 125.5 153.8 113.3 153.5 103.3L153 85L156.6 81C158.6 78.8 167.6 70.4 176.6 62.3C185.6 54.3 192.9 47.6 192.7 47.5C192.5 47.2 173.7 48.5 161.6 49.5L154.7 50L155.3 25C155.6 11.3 155.8 1.00998e-05 155.6 1.00998e-05C155.4 1.00998e-05 154.8 0.60001 154.2 1.20001Z"
    fill="black" />
  <path
    d="M656.2 27.5C653.5 30.9 653.4 33.9 656 39.2C657.1 41.5 658 44.4 658 45.6C658 49.5 652.8 50.1 645.5 47C640 44.6 633.6 44.4 628.9 46.4C622.4 49.2 612 62.7 612 68.4C612 69.2 611.6 70.2 611 70.5C610.5 70.8 610 74.4 610 78.4C610 83.7 609.6 86.1 608.5 87C607.7 87.7 607 88.8 607 89.4C607 91.3 600.5 95 597.2 95C593.1 95 586.9 91.1 583.3 86.3C572.3 71.5 562.1 67.1 547.5 70.5C543 71.6 530.6 84.2 529 89.3C528.2 91.6 527.3 93.9 526.8 94.4C526.4 95 526 97.8 526 100.6C526 103.5 525.6 106.2 525 106.5C524.5 106.8 524 108.4 524 110C524 115.5 518.9 119.1 504 124.1C498.8 125.8 493.6 128.1 492.4 129.1C491.3 130.2 490.1 130.8 489.9 130.5C489.6 130.3 487.3 132 484.7 134.4C481.5 137.3 478.4 141.8 475 148.5C472.2 153.9 470 158.9 470 159.7C470 160.4 469.6 161.8 469.1 162.8C468.6 163.7 467.6 166.5 466.9 169C466.2 171.5 464.6 174.6 463.3 176.1C462 177.5 461 179.1 461 179.6C461 180.2 459.4 182.1 457.5 184C455.6 185.9 454 187 454 186.5C454 186.1 453.2 186.3 452.3 187.1C448.3 190.4 437.3 194.6 424 198C421.5 198.6 418.1 199.6 416.4 200.1C414.7 200.6 412.6 201 411.6 201C410.7 201 408 201.9 405.8 203C403.5 204.1 401.1 205 400.5 205C399.1 205 391.9 208.7 386.3 212.3C383.9 213.8 381.7 215 381.3 215C380.8 215 376.2 219.3 371 224.5C365.8 229.7 361 234 360.3 234C357.2 234 346 253.6 346 258.9C346 260.5 345.6 262.1 345.1 262.4C344.6 262.7 344 264.7 343.7 266.7C343.4 268.8 342.6 272.5 341.9 275C339.7 282.9 340.6 312 343.1 313.6C343.6 313.9 344 315.1 344 316.3C344 318.5 346 325 348.5 330.5C349.2 332.1 350.4 335.1 351.1 337C351.8 338.9 353.7 342.4 355.2 344.6C356.7 346.9 358 349.2 358 349.7C358 350.3 358.9 351.5 360 352.5C361.1 353.5 361.8 354.6 361.5 355C361.3 355.3 367.4 361.9 375.1 369.6C387.4 381.8 391.2 386 395.5 392.9C396.1 393.8 397.8 396.4 399.3 398.7C400.8 401.1 402 403.6 402 404.4C402 405.3 402.9 407.5 404 409.5C405.6 412.4 406 414.9 406 423.5C406 429.3 405.6 434.2 405 434.5C404.5 434.8 404 435.9 404 436.8C404 437.8 402.7 441.2 401 444.5C398.8 449 398.1 451.9 398 456.3C398 462.1 398.1 462.2 403.7 468.1C407.7 472.4 411.6 475.1 416.9 477.7C423.8 481 425.3 481.3 433.5 481.4C446.1 481.5 454 478.4 471.5 466.7C485.3 457.4 488 456.5 503.5 456.8C517.6 457 525.2 456 533.8 452.8C538.2 451.1 541.7 448.5 550.4 440C556.5 434.2 564.4 427.4 567.9 425.1C578 418.2 594.3 411.2 607 408.2C609.5 407.6 614 406.5 617 405.8C624.7 404 657.3 404 662 405.9C668.4 408.4 676 412.1 676.5 413.1C676.9 413.6 677.5 413.8 677.9 413.6C680.1 412.2 694 430.3 694 434.4C694 439.9 705.5 454 710 454C715.1 454 718.9 450.4 722.9 441.7C726.9 433 733.5 425.7 738.4 424.4C742 423.5 743 424.6 742.8 429C742.7 432.2 741.9 433.7 737.8 437.7C732.4 442.9 729.6 448.3 730.5 451.5C730.8 452.6 732.2 454.8 733.6 456.4C736.3 459.5 741 460.2 744.9 458C747.6 456.6 753.3 456.7 755.2 458.2C757.5 460 759 466.4 759 474.8C759 483.7 760.7 495.8 762.4 498.5C763.1 499.6 764.2 502.4 765 504.7C765.7 507.1 766.7 509 767.2 509C767.6 509 768 509.7 768 510.5C768 513.1 770.3 516.3 778 524.3C788.2 534.9 796.7 539.1 809.2 539.8C819.6 540.3 826.3 538.5 835.2 532.8C844.7 526.7 847.5 526.7 854.6 533.2C863.3 541.1 869.2 540.9 881 532.4C884.2 530.1 885 529.9 891 530.5C894.6 530.9 897.8 531.7 898.1 532.2C899.1 533.8 907.1 534.3 911.9 533C916.6 531.8 924.2 525.4 926.6 520.7C927.4 519.2 929 513.8 930.1 508.9C932.6 497.3 934.7 491.8 940.6 481.8C948.4 468.6 957.3 457 974.1 438.6C999.8 410.2 1014 365.2 1010.1 324.7C1008.1 304.8 1003.6 285.9 997.6 272.8C989.4 254.8 987.1 250.6 978.9 238.2C970.3 225.5 966.8 221.5 941.5 196.5C920.6 175.8 916.8 171.5 913.8 165.5C909.8 157.7 907.5 149.7 906.5 140C905.4 129.3 903.2 120.2 900.5 114.5C897.4 108.2 884.4 94.7 873.6 86.5C860.6 76.8 857 68.9 857 50.5C857 38.3 855.8 33.6 851.5 29.3C846.9 24.7 844.4 25 838.9 30.7C833.1 36.9 830.6 40.6 828.9 45.5C828.2 47.7 826.7 51 825.8 52.8C824.8 54.6 824 57.3 824 58.8C824 60.4 823.6 62 823.1 62.5C821.6 64.2 820.8 72.6 820.4 93.5C820.1 104.5 819.5 113.9 819 114.4C818.4 115 818 116.2 818 117.2C818 118.2 817.6 119.8 817.2 120.8C816.7 121.7 815.7 123.8 814.9 125.5C813.9 127.6 811.6 129.4 807.5 131.5C802.1 134.2 800.6 134.5 793 134.3C783.2 134.1 776.1 132.1 764.4 126.2C749.5 118.7 731.9 103.6 727.1 94.2C724.5 89.1 724.3 80.5 726.7 77C727.6 75.6 732 70.6 736.6 65.9C743.3 58.9 744.9 56.6 745.5 53.1C746.4 47.5 743.7 42.3 738.4 39.6C734.8 37.7 733.1 37.5 715.5 37.8C693.5 38.2 689 37.3 676.8 29.9C671.2 26.5 668.5 25.5 664 25.2C658.8 24.8 658.1 25 656.2 27.5ZM665.3 31.2C666.5 31.8 670.3 34.9 673.7 38C687.2 50.3 695.1 52.1 716.4 47.5C725.9 45.5 730 45 732.7 45.7C740.7 47.6 739.2 52.2 728.1 59.4C714 68.5 707.9 77.6 707.7 89.8C707.6 103.3 713.3 114.9 727.4 129.7C747.6 151 767.4 161.1 788.5 161.2C810.9 161.2 825.8 150.9 832.1 131.2C834.9 122.3 835.7 101.8 834 80.8C832.9 68.3 832.9 63.3 833.9 56.4C835.8 42.6 840.4 33 845.1 33C849.2 33 850.1 39.5 848 54.8C845.4 73.4 849.9 86.1 865 102.4C878.4 117 879.4 119.3 881 142.7C883.4 177.6 890.8 193 921 226C944.9 252 956.9 271.6 966 298.7C981.3 345 976.7 383.1 951.1 421.4C931.3 451 920.3 475.4 915 502.1C912.4 515.5 911.5 517.6 907.9 519.1C905.4 520.1 903.6 520 897.7 518.6C886.9 516 880.3 518.3 873 527C867.2 533.9 865.3 533.7 859.8 525.8C851.8 514.2 843.3 512.5 826.5 519.1C819.9 521.7 817.5 522.1 812.5 521.8C804.3 521.3 796.6 517.4 789.1 510.1C778.9 500 774.5 490.2 773 473.8C770.9 451.7 762.3 444.4 745 450C741.2 451.2 737.4 452 736.5 451.6C733.8 450.6 734.9 446.9 739.2 442.6C745.7 436.2 748 432.2 748 427.6C748 422.9 747.4 421.8 744.1 420.1C741.2 418.5 736.1 419.4 730.1 422.5C723.6 425.8 719.3 430.4 715.4 438.2C713.5 441.9 711.4 445 710.6 445C708.2 445 705.9 441.3 702.4 432C697.6 418.8 693.7 412.5 685.5 404.4C665.8 384.8 631.8 378.4 596.5 387.6C571.6 394.2 554.2 403.6 536.5 419.9C525.3 430.3 520.8 432.1 504.2 433.1C483.8 434.3 476.2 437.5 455 453.6C441.9 463.5 435.3 466.9 427.6 467.7C417.5 468.7 406 462.6 406 456.1C406 454.6 408.2 449.2 410.9 444C417.1 431.9 419 425.5 419 416C419 399 410.9 381.4 390.7 354.2C377.1 335.9 371 319.6 371 301.5C371 289.9 373 281.7 378.5 270.5C385.2 256.7 397.3 244.5 411.7 237.2C414 236 421.4 233.2 428.2 230.9C451.1 223.1 462.4 216.7 472.4 205.9C481 196.7 484.7 188.7 490.6 166.5C495.8 147 498.6 143.2 513.3 135.9C527.5 128.7 534.6 119.8 538.4 104.6C541.5 92.2 545.1 87.2 551.7 86.4C556.6 85.8 561 88.4 565.3 94.7C570.9 102.9 575.8 107.6 582.2 111.1C590.5 115.5 598.9 115.7 606.6 111.7C617.1 106.3 622 97.1 623 80.5C624.3 59.5 631.2 51.4 643.6 56.6C649.5 59.1 656.4 58.1 660.3 54.1C664.5 50 664.5 44.5 660.6 37.7C658.3 33.8 658 32.7 659 31.5C660.5 29.7 662.4 29.6 665.3 31.2Z"
    fill="black" />
  <path
    d="M257.2 144.7C255.9 147.3 246.7 173.6 242.8 186L239.5 196.5L233 198.2C229.4 199.1 221.2 201 214.8 202.5C206.1 204.5 203.2 205.5 203.8 206.4C204.7 207.9 216.9 218.5 226.3 225.9C233.1 231.2 233.1 231.3 232.5 235.4C229.4 258.7 227.7 286.5 229.4 286.5C229.7 286.5 231.2 284.2 232.6 281.5C236.6 274.1 250.9 250.3 252.8 248C254.5 246.1 254.7 246.2 263.1 251.4C275.6 259.1 289 266.3 289.7 265.6C290 265.3 289.6 264 288.8 262.8C288.1 261.5 286.1 257.1 284.5 253C283 248.9 280.8 243.5 279.8 241C278.8 238.6 276.8 232.8 275.5 228.1L273 219.7L277.2 214.1C280.8 209.3 291.1 196.8 303.9 181.8C306.6 178.7 306.9 177.9 305.4 178.3C303.8 178.9 279.6 185.5 270.2 188C265.8 189.2 265.8 189.3 262.4 168C261.6 162.8 260.5 155.2 260 151.1C258.9 142.8 258.6 142 257.2 144.7Z"
    fill="black" />
  <path
    d="M43.1 200.7C42.5 203.9 41 211.7 39.7 218C38.4 224.3 36.7 232.9 36.1 237C33.9 250.3 34.9 249 27.2 249C23.5 248.9 16 248.5 10.5 248.1C5.00003 247.6 0.300033 247.4 0.100033 247.6C-0.799967 248.4 5.80003 256.4 20.8 272.9C25 277.5 29 282 29.7 282.9C30.5 284.1 30.6 288.4 29.9 298.5C28.9 316.1 28.8 339 29.8 339C30.2 339 31.2 337.9 32 336.6C37.6 327.6 52.4 307.9 53.5 308.2C54.5 308.4 64.1 317 79 331C82.7 334.5 91 341.1 91 340.6C91 340.3 89.7 337.5 88.1 334.3C81.7 321.4 69 289.4 69 286C69 284.4 87.4 256.7 91.6 251.9C92.4 251.1 93 249.9 93 249.4C93 248.9 85.4 248.5 75.3 248.5H57.6L55.8 241.5C53 230.7 47.3 205.1 46.5 199.7C46.2 197.1 45.5 195 45 195C44.6 195 43.7 197.6 43.1 200.7Z"
    fill="black" />
  <path
    d="M239.7 397.7C245 412.9 245.4 411.3 236 414C231.6 415.3 228.3 416.6 228.7 417C229.1 417.4 234.4 419.6 240.3 422L251.1 426.3L256.9 437.9L262.8 449.5L263.8 445.5C264.4 443.3 265.2 439.6 265.6 437.2C266 434.9 266.6 432.8 267 432.5C267.4 432.3 272.8 433.6 279 435.5C285.2 437.5 290.5 438.9 290.6 438.7C290.8 438.5 287 435.2 282.2 431.3C268.3 420 268.9 420.9 270.6 411.7C271.4 407.3 272 403.2 271.8 402.5C271.6 401.6 269.4 402.1 263.6 404.3L255.8 407.4L246.3 397.7C241.1 392.4 236.7 388 236.5 388C236.4 388 237.8 392.4 239.7 397.7Z"
    fill="black" />
  <path
    d="M181.4 530.7C184.1 540 189.2 567.1 188.4 567.9C187.9 568.4 163 569.7 148 570L139.5 570.2L146 573.2C149.6 574.9 155 577.3 158 578.5C176.7 586.2 189 591 189.9 591C192.4 591 193 595.4 192.6 610.7C192.3 619.4 191.8 627.3 191.5 628.2C190 632.1 195.4 629 210.5 617.2C212.5 615.6 223.3 607.5 225.2 606.1C226.7 605 227.8 604.9 230.8 605.9C246.7 611 280.4 620.9 280.7 620.6C280.9 620.4 273.3 612.8 263.9 603.7L246.7 587.1L254.1 579.3C263.2 569.8 272.3 558.9 271.7 558.3C271.4 558.1 263.9 559 254.9 560.4C228.1 564.6 223.8 565 221.5 563.5C220.4 562.8 211.1 554.7 200.7 545.6C190.4 536.5 181.7 529 181.4 529C181.1 529 181.1 529.8 181.4 530.7Z"
    fill="black" />
  <path
    d="M832.3 569.2C830.1 571.6 827.9 574.8 827.5 576.5C826.1 582.1 825.8 592.2 826.9 593.3C827.5 593.9 828 595.6 828 597C828 601 836.4 616.8 841.2 621.7C849.3 630.1 859.7 632.4 869.5 628.1C884.2 621.6 898.4 593.8 895 578.4C891.6 563.4 876.9 560.6 863.1 572.3C858.7 576 854.9 575.8 850.3 571.7C841 563.5 838.2 563.1 832.3 569.2ZM845.3 576C853.1 583.1 857.4 583.6 867.7 578.5C878.4 573.3 884 574.2 882.5 580.8C881.4 585.9 872.5 599.3 866.2 605.3C858.7 612.4 855.8 612.8 850.9 607.3C844.5 599.9 836 578.8 837.5 573.9C838.4 571 840.6 571.6 845.3 576Z"
    fill="black" />
</svg>