<svg width="1901" height="631" viewBox="0 0 1901 631" fill="none" xmlns="http://www.w3.org/2000/svg">
  <path
    d="M154.181 1.20025C152.981 2.70025 132.981 42.5002 132.981 43.4002C132.981 43.8002 131.881 45.8002 130.481 48.0002L127.981 52.0002H110.481C99.9808 52.0002 92.9808 52.4002 92.9808 53.0002C92.9808 54.0002 96.7808 60.1002 100.181 64.4002C101.481 66.0002 103.381 68.8002 104.481 70.6002C105.581 72.4002 108.181 76.3002 110.281 79.3002C112.281 82.3002 113.981 85.3002 113.981 86.1002C113.981 86.9002 111.281 94.7002 107.881 103.5C102.281 118.3 94.9808 139.8 94.9808 141.4C94.9808 141.8 102.681 134.2 112.181 124.5L129.381 106.8L131.981 109.8C136.281 114.7 148.381 130.2 152.781 136.3L155.181 139.5L154.581 130.5C154.281 125.5 153.781 113.3 153.481 103.3L152.981 85.0002L156.581 81.0002C158.581 78.8002 167.581 70.4002 176.581 62.3002C185.581 54.3002 192.881 47.6002 192.681 47.5002C192.481 47.2002 173.681 48.5002 161.581 49.5002L154.681 50.0002L155.281 25.0003C155.581 11.3003 155.781 0.00025424 155.581 0.00025424C155.381 0.00025424 154.781 0.600254 154.181 1.20025Z"
    fill="black" />
  <path
    d="M656.181 27.5002C653.481 30.9002 653.381 33.9002 655.981 39.2002C657.081 41.5002 657.981 44.4002 657.981 45.6002C657.981 49.5002 652.781 50.1002 645.481 47.0002C639.981 44.6002 633.581 44.4002 628.881 46.4002C622.381 49.2002 611.981 62.7002 611.981 68.4002C611.981 69.2002 611.581 70.2002 610.981 70.5002C610.481 70.8002 609.981 74.4002 609.981 78.4002C609.981 83.7002 609.581 86.1002 608.481 87.0002C607.681 87.7002 606.981 88.8002 606.981 89.4002C606.981 91.3002 600.481 95.0002 597.181 95.0002C593.081 95.0002 586.881 91.1002 583.281 86.3002C572.281 71.5002 562.081 67.1002 547.481 70.5002C542.981 71.6002 530.581 84.2002 528.981 89.3002C528.181 91.6002 527.281 93.9002 526.781 94.4002C526.381 95.0002 525.981 97.8002 525.981 100.6C525.981 103.5 525.581 106.2 524.981 106.5C524.481 106.8 523.981 108.4 523.981 110C523.981 115.5 518.881 119.1 503.981 124.1C498.781 125.8 493.581 128.1 492.381 129.1C491.281 130.2 490.081 130.8 489.881 130.5C489.581 130.3 487.281 132 484.681 134.4C481.481 137.3 478.381 141.8 474.981 148.5C472.181 153.9 469.981 158.9 469.981 159.7C469.981 160.4 469.581 161.8 469.081 162.8C468.581 163.7 467.581 166.5 466.881 169C466.181 171.5 464.581 174.6 463.281 176.1C461.981 177.5 460.981 179.1 460.981 179.6C460.981 180.2 459.381 182.1 457.481 184C455.581 185.9 453.981 187 453.981 186.5C453.981 186.1 453.181 186.3 452.281 187.1C448.281 190.4 437.281 194.6 423.981 198C421.481 198.6 418.081 199.6 416.381 200.1C414.681 200.6 412.581 201 411.581 201C410.681 201 407.981 201.9 405.781 203C403.481 204.1 401.081 205 400.481 205C399.081 205 391.881 208.7 386.281 212.3C383.881 213.8 381.681 215 381.281 215C380.781 215 376.181 219.3 370.981 224.5C365.781 229.7 360.981 234 360.281 234C357.181 234 345.981 253.6 345.981 258.9C345.981 260.5 345.581 262.1 345.081 262.4C344.581 262.7 343.981 264.7 343.681 266.7C343.381 268.8 342.581 272.5 341.881 275C339.681 282.9 340.581 312 343.081 313.6C343.581 313.9 343.981 315.1 343.981 316.3C343.981 318.5 345.981 325 348.481 330.5C349.181 332.1 350.381 335.1 351.081 337C351.781 338.9 353.681 342.4 355.181 344.6C356.681 346.9 357.981 349.2 357.981 349.7C357.981 350.3 358.881 351.5 359.981 352.5C361.081 353.5 361.781 354.6 361.481 355C361.281 355.3 367.381 361.9 375.081 369.6C387.381 381.8 391.181 386 395.481 392.9C396.081 393.8 397.781 396.4 399.281 398.7C400.781 401.1 401.981 403.6 401.981 404.4C401.981 405.3 402.881 407.5 403.981 409.5C405.581 412.4 405.981 414.9 405.981 423.5C405.981 429.3 405.581 434.2 404.981 434.5C404.481 434.8 403.981 435.9 403.981 436.8C403.981 437.8 402.681 441.2 400.981 444.5C398.781 449 398.081 451.9 397.981 456.3C397.981 462.1 398.081 462.2 403.681 468.1C407.681 472.4 411.581 475.1 416.881 477.7C423.781 481 425.281 481.3 433.481 481.4C446.081 481.5 453.981 478.4 471.481 466.7C485.281 457.4 487.981 456.5 503.481 456.8C517.581 457 525.181 456 533.781 452.8C538.181 451.1 541.681 448.5 550.381 440C556.481 434.2 564.381 427.4 567.881 425.1C577.981 418.2 594.281 411.2 606.981 408.2C609.481 407.6 613.981 406.5 616.981 405.8C624.681 404 657.281 404 661.981 405.9C668.381 408.4 675.981 412.1 676.481 413.1C676.881 413.6 677.481 413.8 677.881 413.6C680.081 412.2 693.981 430.3 693.981 434.4C693.981 439.9 705.481 454 709.981 454C715.081 454 718.881 450.4 722.881 441.7C726.881 433 733.481 425.7 738.381 424.4C741.981 423.5 742.981 424.6 742.781 429C742.681 432.2 741.881 433.7 737.781 437.7C732.381 442.9 729.581 448.3 730.481 451.5C730.781 452.6 732.181 454.8 733.581 456.4C736.281 459.5 740.981 460.2 744.881 458C747.581 456.6 753.281 456.7 755.181 458.2C757.481 460 758.981 466.4 758.981 474.8C758.981 483.7 760.681 495.8 762.381 498.5C763.081 499.6 764.181 502.4 764.981 504.7C765.681 507.1 766.681 509 767.181 509C767.581 509 767.981 509.7 767.981 510.5C767.981 513.1 770.281 516.3 777.981 524.3C788.181 534.9 796.681 539.1 809.181 539.8C819.581 540.3 826.281 538.5 835.181 532.8C844.681 526.7 847.481 526.7 854.581 533.2C863.281 541.1 869.181 540.9 880.981 532.4C884.181 530.1 884.981 529.9 890.981 530.5C894.581 530.9 897.781 531.7 898.081 532.2C899.081 533.8 907.081 534.3 911.881 533C916.581 531.8 924.181 525.4 926.581 520.7C927.381 519.2 928.981 513.8 930.081 508.9C932.581 497.3 934.681 491.8 940.581 481.8C948.381 468.6 957.281 457 974.081 438.6C999.781 410.2 1013.98 365.2 1010.08 324.7C1008.08 304.8 1003.58 285.9 997.581 272.8C989.381 254.8 987.081 250.6 978.881 238.2C970.281 225.5 966.781 221.5 941.481 196.5C920.581 175.8 916.781 171.5 913.781 165.5C909.781 157.7 907.481 149.7 906.481 140C905.381 129.3 903.181 120.2 900.481 114.5C897.381 108.2 884.381 94.7002 873.581 86.5002C860.581 76.8002 856.981 68.9002 856.981 50.5002C856.981 38.3002 855.781 33.6002 851.481 29.3002C846.881 24.7002 844.381 25.0002 838.881 30.7002C833.081 36.9002 830.581 40.6002 828.881 45.5002C828.181 47.7002 826.681 51.0002 825.781 52.8002C824.781 54.6002 823.981 57.3002 823.981 58.8002C823.981 60.4002 823.581 62.0002 823.081 62.5002C821.581 64.2002 820.781 72.6002 820.381 93.5002C820.081 104.5 819.481 113.9 818.981 114.4C818.381 115 817.981 116.2 817.981 117.2C817.981 118.2 817.581 119.8 817.181 120.8C816.681 121.7 815.681 123.8 814.881 125.5C813.881 127.6 811.581 129.4 807.481 131.5C802.081 134.2 800.581 134.5 792.981 134.3C783.181 134.1 776.081 132.1 764.381 126.2C749.481 118.7 731.881 103.6 727.081 94.2002C724.481 89.1002 724.281 80.5002 726.681 77.0002C727.581 75.6002 731.981 70.6002 736.581 65.9002C743.281 58.9002 744.881 56.6002 745.481 53.1002C746.381 47.5002 743.681 42.3002 738.381 39.6002C734.781 37.7002 733.081 37.5002 715.481 37.8002C693.481 38.2002 688.981 37.3002 676.781 29.9002C671.181 26.5002 668.481 25.5002 663.981 25.2002C658.781 24.8002 658.081 25.0002 656.181 27.5002ZM665.281 31.2002C666.481 31.8002 670.281 34.9002 673.681 38.0002C687.181 50.3002 695.081 52.1002 716.381 47.5002C725.881 45.5002 729.981 45.0002 732.681 45.7002C740.681 47.6002 739.181 52.2002 728.081 59.4002C713.981 68.5002 707.881 77.6002 707.681 89.8002C707.581 103.3 713.281 114.9 727.381 129.7C747.581 151 767.381 161.1 788.481 161.2C810.881 161.2 825.781 150.9 832.081 131.2C834.881 122.3 835.681 101.8 833.981 80.8002C832.881 68.3002 832.881 63.3002 833.881 56.4002C835.781 42.6002 840.381 33.0002 845.081 33.0002C849.181 33.0002 850.081 39.5002 847.981 54.8002C845.381 73.4002 849.881 86.1002 864.981 102.4C878.381 117 879.381 119.3 880.981 142.7C883.381 177.6 890.781 193 920.981 226C944.881 252 956.881 271.6 965.981 298.7C981.281 345 976.681 383.1 951.081 421.4C931.281 451 920.281 475.4 914.981 502.1C912.381 515.5 911.481 517.6 907.881 519.1C905.381 520.1 903.581 520 897.681 518.6C886.881 516 880.281 518.3 872.981 527C867.181 533.9 865.281 533.7 859.781 525.8C851.781 514.2 843.281 512.5 826.481 519.1C819.881 521.7 817.481 522.1 812.481 521.8C804.281 521.3 796.581 517.4 789.081 510.1C778.881 500 774.481 490.2 772.981 473.8C770.881 451.7 762.281 444.4 744.981 450C741.181 451.2 737.381 452 736.481 451.6C733.781 450.6 734.881 446.9 739.181 442.6C745.681 436.2 747.981 432.2 747.981 427.6C747.981 422.9 747.381 421.8 744.081 420.1C741.181 418.5 736.081 419.4 730.081 422.5C723.581 425.8 719.281 430.4 715.381 438.2C713.481 441.9 711.381 445 710.581 445C708.181 445 705.881 441.3 702.381 432C697.581 418.8 693.681 412.5 685.481 404.4C665.781 384.8 631.781 378.4 596.481 387.6C571.581 394.2 554.181 403.6 536.481 419.9C525.281 430.3 520.781 432.1 504.181 433.1C483.781 434.3 476.181 437.5 454.981 453.6C441.881 463.5 435.281 466.9 427.581 467.7C417.481 468.7 405.981 462.6 405.981 456.1C405.981 454.6 408.181 449.2 410.881 444C417.081 431.9 418.981 425.5 418.981 416C418.981 399 410.881 381.4 390.681 354.2C377.081 335.9 370.981 319.6 370.981 301.5C370.981 289.9 372.981 281.7 378.481 270.5C385.181 256.7 397.281 244.5 411.681 237.2C413.981 236 421.381 233.2 428.181 230.9C451.081 223.1 462.381 216.7 472.381 205.9C480.981 196.7 484.681 188.7 490.581 166.5C495.781 147 498.581 143.2 513.281 135.9C527.481 128.7 534.581 119.8 538.381 104.6C541.481 92.2002 545.081 87.2002 551.681 86.4002C556.581 85.8002 560.981 88.4002 565.281 94.7002C570.881 102.9 575.781 107.6 582.181 111.1C590.481 115.5 598.881 115.7 606.581 111.7C617.081 106.3 621.981 97.1002 622.981 80.5002C624.281 59.5002 631.181 51.4002 643.581 56.6002C649.481 59.1002 656.381 58.1002 660.281 54.1002C664.481 50.0002 664.481 44.5002 660.581 37.7002C658.281 33.8002 657.981 32.7002 658.981 31.5002C660.481 29.7002 662.381 29.6002 665.281 31.2002Z"
    fill="black" />
  <path
    d="M257.181 144.7C255.881 147.3 246.681 173.6 242.781 186L239.481 196.5L232.981 198.2C229.381 199.1 221.181 201 214.781 202.5C206.081 204.5 203.181 205.5 203.781 206.4C204.681 207.9 216.881 218.5 226.281 225.9C233.081 231.2 233.081 231.3 232.481 235.4C229.381 258.7 227.681 286.5 229.381 286.5C229.681 286.5 231.181 284.2 232.581 281.5C236.581 274.1 250.881 250.3 252.781 248C254.481 246.1 254.681 246.2 263.081 251.4C275.581 259.1 288.981 266.3 289.681 265.6C289.981 265.3 289.581 264 288.781 262.8C288.081 261.5 286.081 257.1 284.481 253C282.981 248.9 280.781 243.5 279.781 241C278.781 238.6 276.781 232.8 275.481 228.1L272.981 219.7L277.181 214.1C280.781 209.3 291.081 196.8 303.881 181.8C306.581 178.7 306.881 177.9 305.381 178.3C303.781 178.9 279.581 185.5 270.181 188C265.781 189.2 265.781 189.3 262.381 168C261.581 162.8 260.481 155.2 259.981 151.1C258.881 142.8 258.581 142 257.181 144.7Z"
    fill="black" />
  <path
    d="M43.0808 200.7C42.4808 203.9 40.9808 211.7 39.6808 218C38.3808 224.3 36.6808 232.9 36.0808 237C33.8808 250.3 34.8808 249 27.1808 249C23.4808 248.9 15.9808 248.5 10.4808 248.1C4.98081 247.6 0.280807 247.4 0.0808066 247.6C-0.819193 248.4 5.78081 256.4 20.7808 272.9C24.9808 277.5 28.9808 282 29.6808 282.9C30.4808 284.1 30.5808 288.4 29.8808 298.5C28.8808 316.1 28.7808 339 29.7808 339C30.1808 339 31.1808 337.9 31.9808 336.6C37.5808 327.6 52.3808 307.9 53.4808 308.2C54.4808 308.4 64.0808 317 78.9808 331C82.6808 334.5 90.9808 341.1 90.9808 340.6C90.9808 340.3 89.6808 337.5 88.0808 334.3C81.6808 321.4 68.9808 289.4 68.9808 286C68.9808 284.4 87.3808 256.7 91.5808 251.9C92.3808 251.1 92.9808 249.9 92.9808 249.4C92.9808 248.9 85.3808 248.5 75.2808 248.5H57.5808L55.7808 241.5C52.9808 230.7 47.2808 205.1 46.4808 199.7C46.1808 197.1 45.4808 195 44.9808 195C44.5808 195 43.6808 197.6 43.0808 200.7Z"
    fill="black" />
  <path
    d="M239.681 397.7C244.981 412.9 245.381 411.3 235.981 414C231.581 415.3 228.281 416.6 228.681 417C229.081 417.4 234.381 419.6 240.281 422L251.081 426.3L256.881 437.9L262.781 449.5L263.781 445.5C264.381 443.3 265.181 439.6 265.581 437.2C265.981 434.9 266.581 432.8 266.981 432.5C267.381 432.3 272.781 433.6 278.981 435.5C285.181 437.5 290.481 438.9 290.581 438.7C290.781 438.5 286.981 435.2 282.181 431.3C268.281 420 268.881 420.9 270.581 411.7C271.381 407.3 271.981 403.2 271.781 402.5C271.581 401.6 269.381 402.1 263.581 404.3L255.781 407.4L246.281 397.7C241.081 392.4 236.681 388 236.481 388C236.381 388 237.781 392.4 239.681 397.7Z"
    fill="black" />
  <path
    d="M181.381 530.7C184.081 540 189.181 567.1 188.381 567.9C187.881 568.4 162.981 569.7 147.981 570L139.481 570.2L145.981 573.2C149.581 574.9 154.981 577.3 157.981 578.5C176.681 586.2 188.981 591 189.881 591C192.381 591 192.981 595.4 192.581 610.7C192.281 619.4 191.781 627.3 191.481 628.2C189.981 632.1 195.381 629 210.481 617.2C212.481 615.6 223.281 607.5 225.181 606.1C226.681 605 227.781 604.9 230.781 605.9C246.681 611 280.381 620.9 280.681 620.6C280.881 620.4 273.281 612.8 263.881 603.7L246.681 587.1L254.081 579.3C263.181 569.8 272.281 558.9 271.681 558.3C271.381 558.1 263.881 559 254.881 560.4C228.081 564.6 223.781 565 221.481 563.5C220.381 562.8 211.081 554.7 200.681 545.6C190.381 536.5 181.681 529 181.381 529C181.081 529 181.081 529.8 181.381 530.7Z"
    fill="black" />
  <path
    d="M832.281 569.2C830.081 571.6 827.881 574.8 827.481 576.5C826.081 582.1 825.781 592.2 826.881 593.3C827.481 593.9 827.981 595.6 827.981 597C827.981 601 836.381 616.8 841.181 621.7C849.281 630.1 859.681 632.4 869.481 628.1C884.181 621.6 898.381 593.8 894.981 578.4C891.581 563.4 876.881 560.6 863.081 572.3C858.681 576 854.881 575.8 850.281 571.7C840.981 563.5 838.181 563.1 832.281 569.2ZM845.281 576C853.081 583.1 857.381 583.6 867.681 578.5C878.381 573.3 883.981 574.2 882.481 580.8C881.381 585.9 872.481 599.3 866.181 605.3C858.681 612.4 855.781 612.8 850.881 607.3C844.481 599.9 835.981 578.8 837.481 573.9C838.381 571 840.581 571.6 845.281 576Z"
    fill="black" />
  <path
    d="M1459.98 538.683V602.366H1471.11C1480.6 602.366 1482.66 601.718 1483.69 598.048C1485.34 592.651 1487.2 592.651 1491.94 598.048C1496.89 603.661 1508.02 605.604 1517.71 602.581C1540.39 595.458 1551.52 555.953 1538.33 528.968C1529.05 509.972 1514 505.438 1491.53 515.153C1489.46 516.016 1488.84 511.483 1488.84 495.724V475H1474.41H1459.98V538.683ZM1510.29 540.194C1514 545.807 1514.82 565.883 1511.52 572.143C1508.02 579.051 1501.63 581.426 1494.82 578.619C1488.84 576.029 1488.84 575.813 1488.84 557.896C1488.84 543.216 1489.46 539.546 1492.56 537.819C1498.74 533.934 1506.99 535.013 1510.29 540.194Z"
    fill="black" />
  <path
    d="M1095.98 542.107V601H1119.62C1155.6 601 1170.04 595.025 1181.12 575.821C1186.56 566.432 1186.98 564.085 1186.98 542.32C1186.98 516.928 1185.31 511.38 1174.01 499.857C1163.34 488.761 1152.46 485.347 1122.76 484.067L1095.98 483V542.107ZM1149.33 515.647C1156.44 522.476 1159.37 533.358 1158.11 546.588C1156.44 563.018 1152.05 570.06 1141.17 574.327C1125.48 580.515 1125.27 580.089 1125.27 542.107V508.606L1134.89 509.886C1140.75 510.526 1146.19 512.66 1149.33 515.647Z"
    fill="black" />
  <path
    d="M1306.65 489.508C1305.83 490.154 1305.21 493.385 1305.21 496.4C1305.21 507.17 1302.95 511.478 1297.19 512.124C1292.26 512.77 1291.85 513.632 1291.23 523.971C1290.61 534.741 1290.82 535.387 1295.55 535.387C1300.48 535.387 1300.69 535.602 1301.51 558.434C1302.33 584.712 1305.42 593.112 1316.11 600.22C1321.46 603.667 1325.36 604.313 1336.46 603.882C1344.07 603.451 1350.86 602.59 1351.47 601.728C1352.3 601.082 1352.09 596.128 1351.06 590.958C1349.42 582.558 1348.8 581.696 1342.63 581.05C1332.35 579.973 1329.68 573.511 1330.3 553.48L1330.91 536.464L1340.78 535.817L1350.45 535.171V523.54V511.909L1340.78 511.263L1330.91 510.616L1330.3 499.2L1329.68 488H1318.78C1312.82 488 1307.27 488.646 1306.65 489.508Z"
    fill="black" />
  <path
    d="M1225.08 512.836C1220.31 514.342 1213.89 517.139 1211.2 519.075L1206.23 522.516L1210.58 530.691C1213.07 534.993 1215.34 539.08 1215.55 539.51C1215.97 539.725 1220.93 538.435 1226.73 536.499C1238.53 532.412 1246.2 533.487 1249.3 539.51C1251.16 543.167 1250.54 543.813 1241.64 545.103C1228.39 547.039 1212.86 554.353 1208.1 560.806C1203.13 567.26 1202.51 582.318 1207.06 591.352C1213.27 604.044 1229.63 607.701 1244.33 599.957C1254.06 594.794 1255.72 594.579 1255.72 598.881C1255.72 601.463 1258.41 602.108 1268.35 602.108H1280.98L1280.36 568.12C1279.53 539.08 1278.91 533.272 1275.39 526.819C1267.11 511.976 1245.99 505.953 1225.08 512.836ZM1251.58 568.12C1251.58 574.789 1245.57 580.597 1238.74 580.597C1227.35 580.597 1229.42 568.766 1241.64 564.248C1249.72 561.452 1251.58 562.097 1251.58 568.12Z"
    fill="black" />
  <path
    d="M1380.13 513.302C1364.37 519.109 1363.53 520.4 1368.15 530.939C1372.36 540.618 1371.52 540.403 1389.59 535.026C1396.95 532.66 1398.84 532.875 1403.67 535.886C1411.45 541.263 1410.4 543.199 1399.26 544.92C1383.92 547.07 1367.94 555.244 1364.16 562.987C1359.96 571.16 1359.96 582.99 1363.95 591.163C1370.25 603.853 1389.17 607.94 1402.41 599.767C1410.61 594.605 1413.34 594.39 1413.34 598.691C1413.34 601.272 1416.07 601.918 1426.16 601.918H1438.98L1438.14 567.934C1437.51 531.154 1435.62 524.486 1423.64 515.238C1415.44 509.215 1394.42 508.14 1380.13 513.302ZM1409.14 569.655C1409.14 576.537 1404.3 580.409 1395.9 580.409C1390.43 580.409 1387.49 576.107 1389.38 570.945C1390.64 567.504 1404.93 560.836 1407.67 562.557C1408.51 562.987 1409.14 566.213 1409.14 569.655Z"
    fill="black" />
  <path
    d="M1577.74 512.339C1573.04 514.065 1566.69 516.871 1564.03 518.812L1559.12 522.265L1563.42 530.464C1565.88 534.78 1568.13 538.88 1568.33 539.311C1568.74 539.527 1573.65 538.232 1579.38 536.29C1591.04 532.191 1598.61 533.27 1601.68 539.311C1603.52 542.979 1602.91 543.627 1594.11 544.921C1580.2 547.079 1565.67 554.2 1560.97 561.105C1556.06 568.441 1555.65 582.467 1559.94 591.313C1566.08 604.044 1582.24 607.712 1596.77 599.944C1606.38 594.766 1608.02 594.55 1608.02 598.866C1608.02 601.455 1610.68 602.102 1620.5 602.102H1632.98L1632.16 568.01C1631.55 531.112 1629.71 524.423 1618.05 515.144C1610.89 509.75 1589.81 508.239 1577.74 512.339ZM1603.93 568.657C1603.93 575.562 1598.81 580.525 1591.65 580.525C1580.2 580.525 1581.22 569.736 1593.29 564.773C1602.09 561.105 1603.93 561.752 1603.93 568.657Z"
    fill="black" />
  <path
    d="M1671.03 511.426C1658.18 515.721 1649.68 529.467 1651.96 542.355C1653.82 552.45 1663.15 561.685 1676 566.411C1688.86 571.136 1692.18 574.572 1688.44 579.083C1684.92 583.593 1677.46 583.164 1667.5 577.794C1662.74 575.432 1658.8 573.713 1658.59 574.143C1658.38 574.572 1655.69 578.439 1652.58 582.734C1649.47 587.03 1646.98 591.111 1646.98 591.755C1646.98 592.4 1650.92 595.192 1655.9 597.769C1667.5 604.213 1694.87 604.857 1703.58 598.843C1712.91 592.4 1717.88 582.52 1716.85 571.995C1715.6 559.967 1711.25 555.242 1693.21 546.65C1684.92 542.569 1678.08 538.488 1678.08 537.415C1678.08 536.126 1679.94 534.193 1682.43 532.689C1685.96 530.971 1688.86 531.186 1696.32 533.978C1705.65 537.844 1705.65 537.844 1709.59 532.689C1718.3 521.306 1718.3 520.447 1708.76 515.506C1699.22 510.352 1680.15 508.419 1671.03 511.426Z"
    fill="black" />
  <path
    d="M1756.75 512.924C1727.37 523.675 1719.09 569.903 1742.68 592.05C1753.02 601.726 1763.16 605.166 1777.85 603.661C1788.4 602.801 1804.95 596.565 1804.95 593.77C1804.95 593.125 1803.09 589.255 1800.61 585.169C1796.68 578.504 1796.06 578.074 1788.82 579.794C1773.92 583.019 1763.78 580.224 1759.44 572.053C1757.37 567.968 1757.99 567.753 1780.95 567.753C1808.88 567.753 1810.54 566.678 1808.26 547.542C1804.75 518.299 1782.4 503.248 1756.75 512.924ZM1780.95 538.081C1782.82 540.661 1784.26 543.671 1784.26 544.531C1784.26 545.606 1778.26 546.251 1770.82 546.251C1756.54 546.251 1754.68 544.746 1761.51 537.651C1767.09 531.845 1777.02 532.06 1780.95 538.081Z"
    fill="black" />
  <path
    d="M1128.85 247.44C1110.78 251.966 1099.48 265.325 1099.48 282.348C1099.48 300.664 1107.08 309.068 1135.01 321.566C1150.61 328.677 1154.52 334.064 1147.53 339.451C1141.99 343.76 1132.13 342.898 1120.84 336.865L1110.78 331.478L1103.18 340.744C1099.07 345.7 1095.78 350.656 1095.99 351.949C1097.22 357.12 1120.22 366.601 1134.39 367.679C1146.92 368.541 1150 367.894 1159.86 362.938C1176.69 354.319 1184.09 338.589 1179.77 321.35C1176.69 309.499 1168.48 302.388 1148.97 294.415C1139.53 290.537 1130.69 285.796 1129.67 283.641C1124.12 274.376 1140.96 269.85 1156.36 276.53C1160.27 278.254 1163.76 279.763 1164.17 279.763C1164.37 279.763 1167.45 275.453 1171.15 270.066L1177.72 260.585L1169.92 255.198C1157.8 246.794 1142.61 243.993 1128.85 247.44Z"
    fill="black" />
  <path
    d="M1234.79 276.922C1226.42 281.254 1225.58 281.471 1223.69 278.222C1222.23 275.406 1218.88 274.539 1210.5 274.539H1198.98V336.27V398H1213.64H1228.3V379.589C1228.3 369.409 1228.72 361.178 1229.35 361.178C1229.98 361.178 1232.91 362.695 1235.84 364.644C1242.33 369.193 1258.04 367.676 1265.79 361.828C1289.04 343.851 1290.29 295.766 1267.88 278.222C1259.3 271.724 1245.68 271.29 1234.79 276.922ZM1250.08 303.13C1253.85 308.762 1254.69 328.905 1251.34 335.187C1247.78 342.118 1241.29 344.5 1234.37 341.685C1228.3 339.085 1228.3 338.869 1228.3 320.891C1228.3 306.163 1228.93 302.48 1232.07 300.748C1238.35 296.849 1246.73 297.932 1250.08 303.13Z"
    fill="black" />
  <path
    d="M1317.19 277.281C1312.4 278.989 1305.95 281.765 1303.24 283.688L1298.25 287.104L1302.62 295.22C1305.12 299.491 1307.41 303.549 1307.61 303.976C1308.03 304.189 1313.03 302.908 1318.86 300.986C1330.72 296.928 1338.42 297.996 1341.55 303.976C1343.42 307.606 1342.8 308.247 1333.84 309.528C1320.52 311.45 1304.91 318.711 1300.12 325.118C1295.12 331.525 1294.5 346.474 1299.08 355.444C1305.32 368.044 1321.77 371.674 1336.55 363.986C1346.33 358.861 1348 358.647 1348 362.918C1348 365.481 1350.71 366.122 1360.49 366.122H1372.98V337.718C1372.77 297.569 1369.23 285.823 1355.08 278.776C1346.75 274.504 1328.01 273.65 1317.19 277.281ZM1343.84 332.379C1343.84 339 1337.8 344.766 1330.93 344.766C1319.48 344.766 1321.56 333.02 1333.84 328.535C1341.96 325.759 1343.84 326.4 1343.84 332.379Z"
    fill="black" />
  <path
    d="M1418.97 277.17C1408.14 280.824 1396.23 291.571 1391.98 301.458C1387.52 311.775 1388.16 334.988 1393.05 344.66C1403.25 364.864 1426.41 373.891 1448.72 366.369C1461.05 362.07 1462.33 359.92 1457.01 349.389C1453.19 341.866 1451.7 340.576 1447.87 341.866C1435.97 345.735 1432.15 345.52 1426.41 340.361C1419.4 334.343 1416.85 320.587 1420.89 310.485C1424.5 301.888 1435.76 296.514 1442.56 300.168C1446.6 302.318 1447.87 301.888 1452.12 296.514C1461.48 285.123 1461.9 283.188 1456.16 279.534C1448.94 274.591 1430.24 273.516 1418.97 277.17Z"
    fill="black" />
  <path
    d="M1492.3 276.867C1475.35 284.898 1465.02 305.951 1467.29 327.222C1470.39 353.484 1489.4 369.979 1514.82 367.809C1525.15 366.941 1538.17 362.6 1542.72 358.476C1543.13 358.042 1541.07 353.918 1538.17 349.143L1533.01 340.461L1524.95 343.5C1519.16 345.453 1514.62 345.67 1510.07 344.368C1503.04 342.198 1495.6 336.337 1495.6 333.082C1495.6 332.214 1506.14 331.345 1519.16 331.345C1534.87 331.345 1543.34 330.477 1544.37 328.958C1547.68 323.315 1545.61 302.912 1540.65 292.711C1532.18 274.914 1511.1 267.968 1492.3 276.867ZM1519.16 301.393C1521.02 303.998 1522.47 307.036 1522.47 307.905C1522.47 308.99 1516.48 309.641 1509.04 309.641C1494.36 309.641 1491.47 306.385 1500.15 300.091C1506.97 295.099 1515.44 295.75 1519.16 301.393Z"
    fill="black" />
  <path
    d="M1621.46 7.50559C1620.61 8.15085 1619.98 31.8102 1619.98 59.9864C1619.98 117.199 1621.46 126.018 1632.87 131.825C1638.99 135.266 1655.26 136.127 1659.48 133.331C1663.28 130.965 1659.27 113.758 1653.99 110.101C1649.76 106.875 1649.55 105.369 1649.55 56.33V6H1636.25C1628.85 6 1622.09 6.64525 1621.46 7.50559Z"
    fill="black" />
  <path
    d="M1113.3 70.6055C1104.42 101.329 1096.78 128.158 1096.16 130.105C1095.33 133.567 1096.98 134 1109.79 134H1124.44L1126.51 125.778C1127.75 121.451 1128.78 116.042 1128.78 113.878C1128.78 110.633 1131.05 110.2 1146.12 110.2H1163.67L1165.95 122.1L1168.22 134H1183.7C1192.17 134 1198.98 133.567 1198.98 133.135C1198.98 131.187 1165.95 19.1109 1164.91 17.1636C1164.29 15.8655 1156.03 15 1146.54 15H1129.4L1113.3 70.6055ZM1152.52 61.9509C1155.21 73.6345 1156.86 83.8036 1156.45 84.6691C1155.83 85.7509 1151.29 86.4 1146.12 86.4C1136.01 86.4 1135.39 85.1018 1138.9 71.2545C1139.93 67.1436 1141.99 58.0564 1143.23 51.1327C1144.68 44.2091 1146.12 39.0164 1146.74 39.6655C1147.36 40.0982 1149.84 50.2673 1152.52 61.9509Z"
    fill="black" />
  <path
    d="M1395.15 30.192C1393.49 40.5231 1392.66 41.5993 1387.06 42.6755C1381.26 43.7516 1380.84 44.3973 1380.22 54.9437C1379.6 65.7052 1379.81 66.1357 1385.41 66.7814L1391.21 67.4271L1392.25 91.1025C1393.49 118.652 1396.6 126.4 1408 131.997C1413.6 134.579 1419.19 135.44 1428.73 134.795C1435.98 134.364 1442.2 133.503 1442.83 132.857C1443.24 132.427 1442.83 127.261 1441.58 121.665C1439.72 112.41 1439.09 111.55 1433.7 111.55C1423.55 111.55 1421.27 107.03 1421.27 85.7218V66.5662L1431.22 65.9205L1440.96 65.2748L1441.58 53.8675L1442.2 42.6755H1431.84H1421.27V30.8377V19H1409.04H1397.01L1395.15 30.192Z"
    fill="black" />
  <path
    d="M1328.84 43.3533C1325.32 44.4245 1319.71 48.2808 1316.39 51.9229C1311 57.7074 1310.17 60.2782 1310.17 70.1333C1310.17 84.2731 1313.49 88.3437 1331.75 97.3418C1346.89 104.626 1349.38 107.197 1346.06 111.267C1342.95 115.338 1334.03 114.695 1325.11 109.768C1320.96 107.411 1317.02 105.483 1316.6 105.483C1315.77 105.483 1304.98 122.194 1304.98 123.693C1304.98 127.121 1324.28 134.191 1336.1 134.834C1353.53 136.119 1366.4 129.906 1372.21 117.695C1379.68 101.627 1371.79 86.4155 1351.67 78.7029C1337.97 73.5611 1334.65 70.3475 1338.18 66.0627C1341.71 61.5637 1346.06 61.7779 1355.19 66.7054L1362.66 70.9902L1368.06 62.8491C1370.96 58.5643 1373.45 53.851 1373.45 52.7798C1373.45 45.7099 1341.91 39.0685 1328.84 43.3533Z"
    fill="black" />
  <path
    d="M1502.17 42.3585C1500.49 43.0085 1495.44 47.1248 1491.23 51.241C1484.08 58.1737 1483.23 58.607 1483.23 54.4907C1483.23 44.7417 1481.13 43.0085 1469.34 43.0085H1457.98V88.5042V134H1472.71H1487.44V107.352C1487.44 75.2888 1489.55 70.9559 1505.54 69.2227L1515.85 67.9228L1518.38 56.2239C1519.64 49.7245 1520.27 43.4418 1519.85 42.5752C1518.59 40.6254 1507.22 40.4087 1502.17 42.3585Z"
    fill="black" />
  <path
    d="M1547.11 43.4302C1536.75 46.203 1527 51.5353 1527 54.5213C1527 55.8011 1529.08 60.0669 1531.36 64.1194C1534.47 69.0251 1536.95 71.158 1539.23 70.3048C1557.06 64.3327 1559.76 63.9061 1565.15 67.5321C1572.82 72.8643 1571.78 74.7839 1560.8 76.277C1546.91 78.4099 1530.73 86.7282 1526.38 94.4067C1522.03 102.085 1521.82 112.11 1525.97 121.068C1532.39 134.932 1549.6 139.198 1564.74 130.453C1572.41 125.974 1573.03 125.974 1574.89 129.386C1576.55 132.159 1579.66 133.012 1588.37 133.012H1599.98L1599.15 98.0326C1598.53 60.0669 1597.7 57.0808 1584.64 47.0562C1578.63 42.3638 1558.93 40.4442 1547.11 43.4302ZM1570.54 100.592C1570.54 103.791 1569.5 107.631 1568.05 109.124C1564.53 112.75 1554.99 112.323 1551.67 108.271C1549.39 105.284 1549.6 104.005 1554.58 99.7389C1557.89 96.9662 1562.66 94.62 1565.56 94.62C1569.71 94.62 1570.54 95.6864 1570.54 100.592Z"
    fill="black" />
  <path
    d="M1745.44 42.7835C1737.19 44.9353 1723.78 50.9605 1723.78 52.4668C1723.78 53.1123 1725.64 57.6312 1728.11 62.3652C1731.62 69.6815 1733.06 70.9726 1736.78 69.6815C1754.93 63.8715 1756.79 63.6563 1761.94 67.3145C1768.13 71.6181 1768.54 75.0611 1763.18 75.0611C1761.12 75.0611 1753.28 76.9977 1746.06 79.3648C1725.02 86.0355 1716.15 99.592 1721.51 116.592C1726.87 133.591 1744.2 139.831 1760.91 131.009C1769.16 126.705 1770.19 126.49 1772.26 129.718C1774.11 132.085 1778.03 133.161 1785.46 133.161H1795.98V100.238C1795.98 60.2134 1793.3 51.606 1779.07 44.9353C1769.99 40.6317 1756.58 39.7709 1745.44 42.7835ZM1767.1 100.668C1767.1 108.415 1762.77 112.073 1755.34 111.212C1750.8 110.782 1749.57 109.49 1749.57 105.187C1749.57 101.314 1751.42 98.9465 1756.58 96.1491C1765.04 91.8454 1767.1 92.7062 1767.1 100.668Z"
    fill="black" />
  <path
    d="M1861.55 43.1566C1858.86 44.2407 1854.11 47.0592 1851.02 49.4441C1845.03 53.9971 1842.76 53.3467 1842.76 46.8424C1842.76 43.5903 1841.11 42.9398 1830.37 42.9398H1817.98V88.4699V134H1832.43H1846.89V104.947C1846.89 76.1117 1846.89 75.6781 1852.25 71.3419C1858.24 66.3553 1862.78 65.7049 1867.53 68.957C1870.01 70.4747 1870.84 77.4126 1871.25 102.563L1871.87 134H1886.53H1900.98L1900.15 97.5759C1899.54 68.0898 1898.71 60.0678 1895.82 54.2139C1890.04 42.9398 1874.14 37.7364 1861.55 43.1566Z"
    fill="black" />
  <path
    d="M1210.19 44.7119C1209.98 45.7819 1209.98 61.6171 1209.98 80.0203C1210.19 118.539 1212.67 127.954 1224.69 133.09C1233.6 136.942 1248.1 134.802 1256.59 128.168C1263.84 122.39 1266.12 122.604 1266.12 129.238C1266.12 132.448 1267.78 133.09 1278.55 133.09H1290.98V88.1519V43L1276.07 43.642L1260.94 44.2839L1259.91 75.3125L1258.87 106.341L1253.07 108.267C1241.47 112.547 1240.23 109.551 1239.6 74.4566L1238.98 43.214H1224.69C1216.61 43.214 1210.19 43.856 1210.19 44.7119Z"
    fill="black" />
  <path
    d="M1674.38 44.5167C1673.58 45.1667 1672.98 65.75 1672.98 90.0167V134H1687.98H1702.98V88.5V43H1689.38C1681.78 43 1674.98 43.65 1674.38 44.5167Z"
    fill="black" />
  <path
    d="M1678.11 4.52504C1672.1 9.86453 1671.29 18.5412 1676.11 26.1055C1678.51 29.8876 1681.12 31 1687.74 31C1697.97 31 1702.98 26.1055 1702.98 16.3164C1702.98 8.52965 1701.38 5.85991 1695.56 2.30025C1689.14 -1.25941 1684.13 -0.81445 1678.11 4.52504Z"
    fill="black" />
</svg>