<svg width="1033" height="660" viewBox="0 0 1033 660" fill="none" xmlns="http://www.w3.org/2000/svg">
  <path
    d="M287.329 0H213.986V59.591H91.8654V183.841H0V366.309H91.8654V490.584H213.986V550H278.642C429.72 550 563 428.047 563 275.687C563 124.375 438.657 0 287.329 0Z"
    fill="#E42A20" />
  <path
    d="M254.719 70.7722C253.744 71.7374 237.496 97.3486 237.496 97.9277C237.496 98.1851 236.603 99.4721 235.465 100.888L233.434 103.462H219.217C210.687 103.462 205 103.719 205 104.105C205 104.749 208.087 108.674 210.849 111.441C211.905 112.471 213.449 114.272 214.343 115.431C215.236 116.589 217.349 119.099 219.055 121.029C220.679 122.96 222.06 124.89 222.06 125.405C222.06 125.92 219.867 130.939 217.105 136.602C212.555 146.126 206.625 159.961 206.625 160.99C206.625 161.248 212.88 156.357 220.598 150.115L234.572 138.725L236.684 140.656C240.177 143.809 250.007 153.783 253.582 157.708L255.532 159.768L255.044 153.976C254.8 150.759 254.394 142.908 254.15 136.473L253.744 124.697L256.669 122.123C258.294 120.707 265.605 115.302 272.917 110.09C280.229 104.942 286.159 100.63 285.997 100.566C285.834 100.373 270.561 101.21 260.731 101.853L255.125 102.175L255.613 86.0874C255.857 77.2715 256.019 70 255.857 70C255.694 70 255.207 70.3861 254.719 70.7722Z"
    fill="black" />
  <path
    d="M678.181 56.5002C675.481 59.9002 675.381 62.9002 677.981 68.2002C679.081 70.5002 679.981 73.4002 679.981 74.6002C679.981 78.5002 674.781 79.1002 667.481 76.0002C661.981 73.6002 655.581 73.4002 650.881 75.4002C644.381 78.2002 633.981 91.7002 633.981 97.4002C633.981 98.2002 633.581 99.2002 632.981 99.5002C632.481 99.8002 631.981 103.4 631.981 107.4C631.981 112.7 631.581 115.1 630.481 116C629.681 116.7 628.981 117.8 628.981 118.4C628.981 120.3 622.481 124 619.181 124C615.081 124 608.881 120.1 605.281 115.3C594.281 100.5 584.081 96.1002 569.481 99.5002C564.981 100.6 552.581 113.2 550.981 118.3C550.181 120.6 549.281 122.9 548.781 123.4C548.381 124 547.981 126.8 547.981 129.6C547.981 132.5 547.581 135.2 546.981 135.5C546.481 135.8 545.981 137.4 545.981 139C545.981 144.5 540.881 148.1 525.981 153.1C520.781 154.8 515.581 157.1 514.381 158.1C513.281 159.2 512.081 159.8 511.881 159.5C511.581 159.3 509.281 161 506.681 163.4C503.481 166.3 500.381 170.8 496.981 177.5C494.181 182.9 491.981 187.9 491.981 188.7C491.981 189.4 491.581 190.8 491.081 191.8C490.581 192.7 489.581 195.5 488.881 198C488.181 200.5 486.581 203.6 485.281 205.1C483.981 206.5 482.981 208.1 482.981 208.6C482.981 209.2 481.381 211.1 479.481 213C477.581 214.9 475.981 216 475.981 215.5C475.981 215.1 475.181 215.3 474.281 216.1C470.281 219.4 459.281 223.6 445.981 227C443.481 227.6 440.081 228.6 438.381 229.1C436.681 229.6 434.581 230 433.581 230C432.681 230 429.981 230.9 427.781 232C425.481 233.1 423.081 234 422.481 234C421.081 234 413.881 237.7 408.281 241.3C405.881 242.8 403.681 244 403.281 244C402.781 244 398.181 248.3 392.981 253.5C387.781 258.7 382.981 263 382.281 263C379.181 263 367.981 282.6 367.981 287.9C367.981 289.5 367.581 291.1 367.081 291.4C366.581 291.7 365.981 293.7 365.681 295.7C365.381 297.8 364.581 301.5 363.881 304C361.681 311.9 362.581 341 365.081 342.6C365.581 342.9 365.981 344.1 365.981 345.3C365.981 347.5 367.981 354 370.481 359.5C371.181 361.1 372.381 364.1 373.081 366C373.781 367.9 375.681 371.4 377.181 373.6C378.681 375.9 379.981 378.2 379.981 378.7C379.981 379.3 380.881 380.5 381.981 381.5C383.081 382.5 383.781 383.6 383.481 384C383.281 384.3 389.381 390.9 397.081 398.6C409.381 410.8 413.181 415 417.481 421.9C418.081 422.8 419.781 425.4 421.281 427.7C422.781 430.1 423.981 432.6 423.981 433.4C423.981 434.3 424.881 436.5 425.981 438.5C427.581 441.4 427.981 443.9 427.981 452.5C427.981 458.3 427.581 463.2 426.981 463.5C426.481 463.8 425.981 464.9 425.981 465.8C425.981 466.8 424.681 470.2 422.981 473.5C420.781 478 420.081 480.9 419.981 485.3C419.981 491.1 420.081 491.2 425.681 497.1C429.681 501.4 433.581 504.1 438.881 506.7C445.781 510 447.281 510.3 455.481 510.4C468.081 510.5 475.981 507.4 493.481 495.7C507.281 486.4 509.981 485.5 525.481 485.8C539.581 486 547.181 485 555.781 481.8C560.181 480.1 563.681 477.5 572.381 469C578.481 463.2 586.381 456.4 589.881 454.1C599.981 447.2 616.281 440.2 628.981 437.2C631.481 436.6 635.981 435.5 638.981 434.8C646.681 433 679.281 433 683.981 434.9C690.381 437.4 697.981 441.1 698.481 442.1C698.881 442.6 699.481 442.8 699.881 442.6C702.081 441.2 715.981 459.3 715.981 463.4C715.981 468.9 727.481 483 731.981 483C737.081 483 740.881 479.4 744.881 470.7C748.881 462 755.481 454.7 760.381 453.4C763.981 452.5 764.981 453.6 764.781 458C764.681 461.2 763.881 462.7 759.781 466.7C754.381 471.9 751.581 477.3 752.481 480.5C752.781 481.6 754.181 483.8 755.581 485.4C758.281 488.5 762.981 489.2 766.881 487C769.581 485.6 775.281 485.7 777.181 487.2C779.481 489 780.981 495.4 780.981 503.8C780.981 512.7 782.681 524.8 784.381 527.5C785.081 528.6 786.181 531.4 786.981 533.7C787.681 536.1 788.681 538 789.181 538C789.581 538 789.981 538.7 789.981 539.5C789.981 542.1 792.281 545.3 799.981 553.3C810.181 563.9 818.681 568.1 831.181 568.8C841.581 569.3 848.281 567.5 857.181 561.8C866.681 555.7 869.481 555.7 876.581 562.2C885.281 570.1 891.181 569.9 902.981 561.4C906.181 559.1 906.981 558.9 912.981 559.5C916.581 559.9 919.781 560.7 920.081 561.2C921.081 562.8 929.081 563.3 933.881 562C938.581 560.8 946.181 554.4 948.581 549.7C949.381 548.2 950.981 542.8 952.081 537.9C954.581 526.3 956.681 520.8 962.581 510.8C970.381 497.6 979.281 486 996.081 467.6C1021.78 439.2 1035.98 394.2 1032.08 353.7C1030.08 333.8 1025.58 314.9 1019.58 301.8C1011.38 283.8 1009.08 279.6 1000.88 267.2C992.281 254.5 988.781 250.5 963.481 225.5C942.581 204.8 938.781 200.5 935.781 194.5C931.781 186.7 929.481 178.7 928.481 169C927.381 158.3 925.181 149.2 922.481 143.5C919.381 137.2 906.381 123.7 895.581 115.5C882.581 105.8 878.981 97.9002 878.981 79.5002C878.981 67.3002 877.781 62.6002 873.481 58.3002C868.881 53.7002 866.381 54.0002 860.881 59.7002C855.081 65.9002 852.581 69.6002 850.881 74.5002C850.181 76.7002 848.681 80.0002 847.781 81.8002C846.781 83.6002 845.981 86.3002 845.981 87.8002C845.981 89.4002 845.581 91.0002 845.081 91.5002C843.581 93.2002 842.781 101.6 842.381 122.5C842.081 133.5 841.481 142.9 840.981 143.4C840.381 144 839.981 145.2 839.981 146.2C839.981 147.2 839.581 148.8 839.181 149.8C838.681 150.7 837.681 152.8 836.881 154.5C835.881 156.6 833.581 158.4 829.481 160.5C824.081 163.2 822.581 163.5 814.981 163.3C805.181 163.1 798.081 161.1 786.381 155.2C771.481 147.7 753.881 132.6 749.081 123.2C746.481 118.1 746.281 109.5 748.681 106C749.581 104.6 753.981 99.6002 758.581 94.9002C765.281 87.9002 766.881 85.6002 767.481 82.1002C768.381 76.5002 765.681 71.3002 760.381 68.6002C756.781 66.7002 755.081 66.5002 737.481 66.8002C715.481 67.2002 710.981 66.3002 698.781 58.9002C693.181 55.5002 690.481 54.5002 685.981 54.2002C680.781 53.8002 680.081 54.0002 678.181 56.5002ZM687.281 60.2002C688.481 60.8002 692.281 63.9002 695.681 67.0002C709.181 79.3002 717.081 81.1002 738.381 76.5002C747.881 74.5002 751.981 74.0002 754.681 74.7002C762.681 76.6002 761.181 81.2002 750.081 88.4002C735.981 97.5002 729.881 106.6 729.681 118.8C729.581 132.3 735.281 143.9 749.381 158.7C769.581 180 789.381 190.1 810.481 190.2C832.881 190.2 847.781 179.9 854.081 160.2C856.881 151.3 857.681 130.8 855.981 109.8C854.881 97.3002 854.881 92.3002 855.881 85.4002C857.781 71.6002 862.381 62.0002 867.081 62.0002C871.181 62.0002 872.081 68.5002 869.981 83.8002C867.381 102.4 871.881 115.1 886.981 131.4C900.381 146 901.381 148.3 902.981 171.7C905.381 206.6 912.781 222 942.981 255C966.881 281 978.881 300.6 987.981 327.7C1003.28 374 998.681 412.1 973.081 450.4C953.281 480 942.281 504.4 936.981 531.1C934.381 544.5 933.481 546.6 929.881 548.1C927.381 549.1 925.581 549 919.681 547.6C908.881 545 902.281 547.3 894.981 556C889.181 562.9 887.281 562.7 881.781 554.8C873.781 543.2 865.281 541.5 848.481 548.1C841.881 550.7 839.481 551.1 834.481 550.8C826.281 550.3 818.581 546.4 811.081 539.1C800.881 529 796.481 519.2 794.981 502.8C792.881 480.7 784.281 473.4 766.981 479C763.181 480.2 759.381 481 758.481 480.6C755.781 479.6 756.881 475.9 761.181 471.6C767.681 465.2 769.981 461.2 769.981 456.6C769.981 451.9 769.381 450.8 766.081 449.1C763.181 447.5 758.081 448.4 752.081 451.5C745.581 454.8 741.281 459.4 737.381 467.2C735.481 470.9 733.381 474 732.581 474C730.181 474 727.881 470.3 724.381 461C719.581 447.8 715.681 441.5 707.481 433.4C687.781 413.8 653.781 407.4 618.481 416.6C593.581 423.2 576.181 432.6 558.481 448.9C547.281 459.3 542.781 461.1 526.181 462.1C505.781 463.3 498.181 466.5 476.981 482.6C463.881 492.5 457.281 495.9 449.581 496.7C439.481 497.7 427.981 491.6 427.981 485.1C427.981 483.6 430.181 478.2 432.881 473C439.081 460.9 440.981 454.5 440.981 445C440.981 428 432.881 410.4 412.681 383.2C399.081 364.9 392.981 348.6 392.981 330.5C392.981 318.9 394.981 310.7 400.481 299.5C407.181 285.7 419.281 273.5 433.681 266.2C435.981 265 443.381 262.2 450.181 259.9C473.081 252.1 484.381 245.7 494.381 234.9C502.981 225.7 506.681 217.7 512.581 195.5C517.781 176 520.581 172.2 535.281 164.9C549.481 157.7 556.581 148.8 560.381 133.6C563.481 121.2 567.081 116.2 573.681 115.4C578.581 114.8 582.981 117.4 587.281 123.7C592.881 131.9 597.781 136.6 604.181 140.1C612.481 144.5 620.881 144.7 628.581 140.7C639.081 135.3 643.981 126.1 644.981 109.5C646.281 88.5002 653.181 80.4002 665.581 85.6002C671.481 88.1002 678.381 87.1002 682.281 83.1002C686.481 79.0002 686.481 73.5002 682.581 66.7002C680.281 62.8002 679.981 61.7002 680.981 60.5002C682.481 58.7002 684.381 58.6002 687.281 60.2002Z"
    fill="black" />
  <path
    d="M323.75 162.881C322.711 164.533 315.356 181.248 312.238 189.129L309.6 195.802L304.404 196.882C301.526 197.454 294.971 198.662 289.854 199.615C282.899 200.886 280.581 201.522 281.061 202.094C281.78 203.047 291.533 209.784 299.048 214.486C304.484 217.855 304.484 217.918 304.004 220.524C301.526 235.332 300.167 253 301.526 253C301.766 253 302.965 251.538 304.084 249.822C307.282 245.119 318.713 229.994 320.232 228.532C321.591 227.324 321.751 227.388 328.466 230.693C338.459 235.586 349.171 240.162 349.731 239.717C349.971 239.527 349.651 238.7 349.012 237.938C348.452 237.112 346.853 234.315 345.574 231.71C344.375 229.104 342.616 225.672 341.817 224.083C341.017 222.558 339.419 218.872 338.379 215.885L336.381 210.546L339.738 206.987C342.616 203.937 350.85 195.992 361.083 186.459C363.241 184.489 363.481 183.981 362.282 184.235C361.003 184.616 341.657 188.811 334.142 190.4C330.625 191.162 330.625 191.226 327.907 177.689C327.267 174.384 326.388 169.554 325.988 166.948C325.109 161.673 324.869 161.165 323.75 162.881Z"
    fill="black" />
  <path
    d="M151.75 198.679C151.266 200.745 150.056 205.78 149.007 209.846C147.959 213.913 146.587 219.464 146.103 222.11C144.329 230.695 145.135 229.856 138.925 229.856C135.94 229.792 129.89 229.533 125.454 229.275C121.018 228.953 117.227 228.823 117.065 228.953C116.339 229.469 121.663 234.633 133.762 245.283C137.15 248.253 140.376 251.157 140.941 251.738C141.586 252.513 141.667 255.288 141.102 261.808C140.296 273.168 140.215 287.95 141.022 287.95C141.344 287.95 142.151 287.24 142.796 286.401C147.313 280.591 159.251 267.875 160.139 268.069C160.945 268.198 168.689 273.749 180.707 282.786C183.692 285.045 190.387 289.305 190.387 288.983C190.387 288.789 189.338 286.982 188.048 284.916C182.885 276.589 172.641 255.934 172.641 253.739C172.641 252.706 187.483 234.826 190.871 231.728C191.516 231.212 192 230.437 192 230.114C192 229.792 185.87 229.533 177.723 229.533H163.446L161.994 225.015C159.735 218.044 155.138 201.519 154.492 198.034C154.25 196.356 153.686 195 153.282 195C152.96 195 152.234 196.678 151.75 198.679Z"
    fill="black" />
  <path
    d="M309.728 325.151C313.921 334.79 314.237 333.776 306.801 335.488C303.32 336.312 300.71 337.137 301.026 337.39C301.342 337.644 305.535 339.039 310.203 340.561L318.746 343.288L323.335 350.644L328.002 358L328.793 355.463C329.268 354.068 329.901 351.722 330.217 350.2C330.533 348.741 331.008 347.41 331.324 347.22C331.641 347.093 335.913 347.917 340.817 349.122C345.722 350.39 349.915 351.278 349.994 351.151C350.152 351.024 347.146 348.932 343.349 346.459C332.353 339.293 332.828 339.863 334.172 334.029C334.805 331.239 335.28 328.639 335.122 328.195C334.963 327.624 333.223 327.941 328.635 329.337L322.464 331.302L314.949 325.151C310.835 321.79 307.355 319 307.196 319C307.117 319 308.225 321.79 309.728 325.151Z"
    fill="black" />
  <path
    d="M262.531 411.079C264.692 416.984 268.773 434.192 268.133 434.7C267.733 435.017 247.806 435.843 235.802 436.033L229 436.16L234.202 438.065C237.083 439.144 241.404 440.668 243.805 441.43C258.77 446.319 268.613 449.367 269.333 449.367C271.334 449.367 271.814 452.161 271.494 461.876C271.254 467.4 270.854 472.416 270.614 472.987C269.413 475.464 273.735 473.495 285.819 466.003C287.419 464.987 296.062 459.844 297.582 458.955C298.783 458.257 299.663 458.193 302.064 458.828C314.788 462.066 341.757 468.352 341.997 468.162C342.157 468.035 336.075 463.209 328.553 457.431L314.788 446.891L320.71 441.938C327.992 435.906 335.275 428.985 334.795 428.604C334.554 428.477 328.553 429.049 321.35 429.938C299.903 432.604 296.462 432.858 294.621 431.906C293.741 431.461 286.299 426.318 277.976 420.54C269.733 414.762 262.771 410 262.531 410C262.291 410 262.291 410.508 262.531 411.079Z"
    fill="black" />
  <path
    d="M854.281 598.2C852.081 600.6 849.881 603.8 849.481 605.5C848.081 611.1 847.781 621.2 848.881 622.3C849.481 622.9 849.981 624.6 849.981 626C849.981 630 858.381 645.8 863.181 650.7C871.281 659.1 881.681 661.4 891.481 657.1C906.181 650.6 920.381 622.8 916.981 607.4C913.581 592.4 898.881 589.6 885.081 601.3C880.681 605 876.881 604.8 872.281 600.7C862.981 592.5 860.181 592.1 854.281 598.2ZM867.281 605C875.081 612.1 879.381 612.6 889.681 607.5C900.381 602.3 905.981 603.2 904.481 609.8C903.381 614.9 894.481 628.3 888.181 634.3C880.681 641.4 877.781 641.8 872.881 636.3C866.481 628.9 857.981 607.8 859.481 602.9C860.381 600 862.581 600.6 867.281 605Z"
    fill="black" />
</svg>